<?xml version="1.0" standalone="no"?>
<!DOCTYPE svg PUBLIC "-//W3C//DTD SVG 1.1//EN" "http://www.w3.org/Graphics/SVG/1.1/DTD/svg11.dtd" >
<svg xmlns="http://www.w3.org/2000/svg">
<metadata>
This is a custom SVG font generated by IcoMoon.

</metadata>
<defs>
<font id="IcoMoon" horiz-adv-x="512" >
<font-face units-per-em="512" ascent="480" descent="-32" />
<missing-glyph horiz-adv-x="512" />
<glyph unicode="&#x0021;" d="M 64.00,224.004c0.00-74.013, 44.161-137.984, 108.215-168.289L 80.626,300.107C 69.972,276.853, 64.00,251.116, 64.00,224.004zM 385.614,233.436c0.00,23.117-8.527,39.118-15.827,51.571c-9.729,15.41-18.86,28.447-18.86,43.858
			c0.00,17.187, 13.383,33.188, 32.243,33.188c 0.852,0.00, 1.66-0.102, 2.488-0.151C 351.50,392.387, 305.988,411.00, 256.004,411.00
			c-67.08,0.00-126.093-33.523-160.422-84.284c 4.505-0.141, 8.753-0.227, 12.356-0.227c 20.077,0.00, 51.17,2.376, 51.17,2.376
			c 10.345,0.591, 11.566-14.217, 1.229-15.411c0.00,0.00-10.405-1.184-21.976-1.775l 69.917-202.553l 42.022,122.728l-29.911,79.825
			c-10.344,0.592-20.139,1.775-20.139,1.775c-10.351,0.596-9.136,16.001, 1.219,15.411c0.00,0.00, 31.70-2.376, 50.567-2.376
			c 20.073,0.00, 51.175,2.376, 51.175,2.376c 10.351,0.591, 11.57-14.217, 1.223-15.411c0.00,0.00-10.417-1.186-21.974-1.775L 351.85,110.67
			l 19.156,62.316C 379.296,198.861, 385.614,217.436, 385.614,233.436zM 259.371,207.648l-57.613-163.029c 17.208-4.929, 35.397-7.619, 54.244-7.619c 22.358,0.00, 43.802,3.759, 63.759,10.60
			c-0.509,0.801-0.987,1.652-1.375,2.577L 259.371,207.648zM 424.481,313.714c 0.826-5.955, 1.294-12.343, 1.294-19.229c0.00-18.965-3.646-40.298-14.601-66.975l-58.643-165.136
			C 409.612,94.788, 448.00,155.018, 448.00,224.003C 448.00,256.518, 439.47,287.083, 424.481,313.714zM 256.00,480.00C 114.615,480.00,0.00,365.385,0.00,224.00s 114.615-256.00, 256.00-256.00s 256.00,114.615, 256.00,256.00S 397.385,480.00, 256.00,480.00z M 256.00,0.00
		C 132.288,0.00, 32.00,100.288, 32.00,224.00S 132.288,448.00, 256.00,448.00s 224.00-100.288, 224.00-224.00S 379.712,0.00, 256.00,0.00z" />
<glyph unicode="&#x0022;" d="M 259.555,206.271l-60.828-176.742c 18.164-5.343, 37.372-8.262, 57.269-8.262c 23.608,0.00, 46.251,4.077, 67.321,11.492
		c-0.539,0.868-1.039,1.793-1.45,2.795L 259.555,206.271zM 392.852,234.232c0.00,25.062-9.006,42.405-16.718,55.905c-10.273,16.708-19.912,30.843-19.912,47.55
		c0.00,18.631, 14.13,35.979, 34.045,35.979c 0.896,0.00, 1.753-0.108, 2.624-0.165c-36.064,33.048-84.119,53.225-136.896,53.225
		c-70.82,0.00-133.129-36.34-169.376-91.371c 4.757-0.153, 9.242-0.244, 13.044-0.244c 21.197,0.00, 54.028,2.576, 54.028,2.576
		c 10.928,0.639, 12.213-15.416, 1.299-16.707c0.00,0.00-10.985-1.282-23.198-1.928l 73.816-219.589l 44.371,133.05l-31.584,86.541
		c-10.92,0.645-21.262,1.926-21.262,1.926c-10.927,0.646-9.645,17.347, 1.288,16.707c0.00,0.00, 33.47-2.576, 53.391-2.576
		c 21.199,0.00, 54.03,2.576, 54.03,2.576c 10.931,0.64, 12.218-15.414, 1.297-16.707c0.00,0.00-10.999-1.281-23.202-1.926l 73.262-217.916
		l 20.229,67.559C 386.179,196.748, 392.852,216.882, 392.852,234.232zM 357.915,48.781c 60.269,35.14, 100.803,100.438, 100.803,175.227c0.00,35.246-9.005,68.381-24.831,97.254
		c 0.871-6.455, 1.366-13.382, 1.366-20.847c0.00-20.564-3.854-43.688-15.416-72.609L 357.915,48.781zM 53.277,224.008c0.00-80.24, 46.624-149.592, 114.258-182.448L 70.83,306.51C 59.577,281.299, 53.277,253.399, 53.277,224.008zM 426.688,480.00L 85.346,480.00 C 38.406,480.00,0.00,441.594,0.00,394.659l0.00-341.313 C0.00,6.376, 38.406-32.00, 85.346-32.00l 341.342,0.00 
		C 473.622-32.00, 512.00,6.376, 512.00,53.346L 512.00,394.659 C 512.00,441.594, 473.622,480.00, 426.688,480.00z M 255.993-1.48
		c-124.327,0.00-225.476,101.156-225.476,225.488c0.00,124.324, 101.147,225.475, 225.476,225.475
		c 124.327,0.00, 225.484-101.149, 225.484-225.475C 481.48,99.676, 380.322-1.48, 255.993-1.48z" />
<glyph unicode="&#x0023;" d="M 30.269,480.00l 41.072-460.815L 255.719-32.00l 184.862,51.262L 481.731,480.00L 30.269,480.00 z M 392.315,329.286l-0.195,0.00 L 176.045,329.286 l 5.151-57.875
	L 387.18,271.411 l-15.521-173.505L 255.99,65.818l-0.115-0.039l-0.077,0.00 l-0.061,0.00 l-115.786,32.127l-7.915,88.756l 56.747,0.00 l 4.024-45.116
	l 62.931-16.958l 0.139,0.039l 62.967,16.996l 6.535,73.275L 129.509,214.898 L 114.262,385.798l 283.107,0.00 L 392.315,329.286z" />
<glyph unicode="&#x002b;" d="M 395.749,207.954c-0.647,64.841, 52.879,95.938, 55.271,97.483c-30.076,44.01-76.925,50.039-93.621,50.736
		c-39.871,4.037-77.798-23.474-98.033-23.474c-20.184,0.00-51.409,22.877-84.476,22.276c-43.458-0.646-83.529-25.269-105.906-64.19
		c-45.152-78.349-11.563-194.42, 32.445-257.963c 21.504-31.102, 47.146-66.038, 80.813-64.79c 32.421,1.294, 44.681,20.979, 83.878,20.979
		c 39.197,0.00, 50.214-20.979, 84.525-20.335c 34.887,0.648, 56.991,31.699, 78.346,62.898c 24.695,36.084, 34.863,71.019, 35.462,72.813
		C 463.679,104.74, 396.423,130.505, 395.749,207.954zM 331.281,398.239C 349.15,419.918, 361.211,449.995, 357.921,480.00c-25.739-1.048-56.939-17.145-75.405-38.775
		c-16.571-19.188-31.074-49.813-27.187-79.218C 284.062,359.765, 313.393,376.609, 331.281,398.239z" />
<glyph unicode="&#x002c;" d="M 432.00,320.00c-17.60,0.00-32.00-14.40-32.00-32.00l0.00-128.00 c0.00-17.60, 14.40-32.00, 32.00-32.00s 32.00,14.40, 32.00,32.00L 464.00,288.00 C 464.00,305.60, 449.60,320.00, 432.00,320.00zM 48.00,320.00c-17.60,0.00-32.00-14.40-32.00-32.00l0.00-128.00 c0.00-17.60, 14.40-32.00, 32.00-32.00s 32.00,14.40, 32.00,32.00L 80.00,288.00 C 80.00,305.60, 65.599,320.00, 48.00,320.00zM 96.00,112.00c0.00-26.51, 21.49-48.00, 48.00-48.00l 16.00,0.00 l0.00-64.00 c0.00-17.60, 14.40-32.00, 32.00-32.00s 32.00,14.40, 32.00,32.00l0.00,64.00 l 32.00,0.00 l0.00-64.00 c0.00-17.60, 14.401-32.00, 32.00-32.00s 32.00,14.40, 32.00,32.00
		l0.00,64.00 l 16.00,0.00 c 26.51,0.00, 48.00,21.49, 48.00,48.00L 384.00,288.00 L 96.00,288.00 L 96.00,112.00 zM 299.299,435.253l 20.252,38.903c 1.016,1.951, 0.25,4.379-1.701,5.395s-4.379,0.25-5.395-1.701l-20.559-39.493
		C 275.797,444.581, 258.299,448.00, 240.00,448.00c-18.298,0.00-35.796-3.419-51.898-9.643L 167.544,477.849c-1.016,1.951-3.443,2.717-5.395,1.701
		s-2.717-3.443-1.701-5.395l 20.25-38.904c-45.315-20.509-78.12-63.792-83.81-115.252l 286.22,0.00 
		C 377.42,371.461, 344.615,414.743, 299.299,435.253z M 176.00,344.80c-12.813,0.00-23.20,10.387-23.20,23.20c0.00,12.813, 10.387,23.20, 23.20,23.20
		s 23.20-10.387, 23.20-23.20C 199.199,355.187, 188.813,344.80, 176.00,344.80z M 304.00,344.80c-12.813,0.00-23.201,10.387-23.201,23.20
		c0.00,12.813, 10.389,23.20, 23.201,23.20s 23.199-10.387, 23.199-23.20C 327.199,355.187, 316.813,344.80, 304.00,344.80z" />
<glyph unicode="&#x0032;" d="M 426.656,480.00L 85.344,480.00 C 38.406,480.00,0.00,441.594,0.00,394.657l0.00-341.313 C0.00,6.376, 38.407-32.00, 85.344-32.00l 341.312,0.00 
	C 473.593-32.00, 512.00,6.376, 512.00,53.344L 512.00,394.656 C 511.997,441.594, 473.593,480.00, 426.656,480.00z M 157.395,51.365L 79.969,51.365 L 79.969,284.329 l 77.426,0.00 L 157.395,51.365 z
	 M 118.684,316.121l-0.508,0.00 c-25.983,0.00-42.788,17.898-42.788,40.266c0.00,22.846, 17.313,40.248, 43.803,40.248
	c 26.486,0.00, 42.791-17.396, 43.296-40.248C 162.487,334.027, 145.678,316.121, 118.684,316.121z M 436.611,51.365l-77.426,0.00 L 359.185,176.003 
	c0.00,31.308-11.205,52.669-39.219,52.669c-21.396,0.00-34.144-14.406-39.73-28.318c-2.041-4.979-2.548-11.924-2.548-18.883l0.00-130.104 
	l-77.443,0.00 c0.00,0.00, 1.018,211.103,0.00,232.963l 77.436,0.00 l0.00-33.00 c 10.283,15.864, 28.672,38.479, 69.785,38.479c 50.951,0.00, 89.146-33.309, 89.146-104.856
	L 436.612,51.365 L 436.611,51.365z" />
<glyph unicode="&#x0024;" d="M 30.269,480.00l 41.072-460.815L 255.719-32.00l 184.862,51.262L 481.731,480.00L 30.269,480.00 z M 405.381,48.588L 256.768,7.40l0.00-0.233 
		l-0.388,0.117l-0.391-0.117L 255.989,7.40 l-148.611,41.188L 72.257,442.331l 368.248,0.00 L 405.381,48.588zM 325.377,214.898L 318.842,141.622L 255.874,124.626L 255.737,124.587L 192.806,141.545L 188.781,186.662L 132.036,186.662L 139.951,97.906L 255.737,65.779L 255.797,65.779L 255.874,65.779L 255.989,65.818L 371.66,97.906L 387.18,271.412L 181.197,271.412L 176.046,329.286L 392.117,329.286L 392.313,329.286L 397.369,385.799L 114.26,385.799L 129.509,214.898 	z" />
<glyph unicode="&#x0025;" d="M 76.194,455.739L 59.014,369.776L 408.888,369.776L 397.946,314.249L 47.852,314.249L 30.906,228.30L 380.748,228.30L 361.239,130.268L 220.233,83.557L 98.033,130.268L 106.397,172.789L 20.448,172.789L0.00,69.613L 202.113-7.739L 435.116,69.613L 512.00,455.739 z" />
<glyph unicode="&#x0041;" d="M 449.735,374.562l-75.173,87.703C 365.751,472.542, 349.533,480.00, 336.00,480.00L 80.00,480.00 C 62.355,480.00, 48.00,465.645, 48.00,448.00l0.00-448.00 c0.00-17.645, 14.354-32.00, 32.00-32.00
		l 352.00,0.00 c 17.645,0.00, 32.00,14.355, 32.00,32.00L 464.00,336.00 C 464.00,348.702, 458.00,364.92, 449.735,374.562z M 352.00,459.633c 4.142-2.112, 7.88-4.826, 10.412-7.781
		l 75.175-87.704c 2.649-3.092, 5.069-7.469, 6.913-12.148L 352.00,352.00 L 352.00,459.633 z M 448.00,0.00c0.00-8.80-7.20-16.00-16.00-16.00L 80.00-16.00 c-8.80,0.00-16.00,7.20-16.00,16.00L 64.00,448.00 
		c0.00,8.80, 7.20,16.00, 16.00,16.00l 256.00,0.00 l0.00-128.00 l 112.00,0.00 L 448.00,0.00 zM 224.00,192.00L 192.00,224.00L 96.00,128.00L 192.00,32.00L 224.00,64.00L 160.00,128.00 	zM 288.00,64.00L 320.00,32.00L 416.00,128.00L 320.00,224.00L 288.00,192.00L 352.00,128.00 	z" />
<glyph unicode="&#x0042;" d="M 449.735,374.562l-75.173,87.703C 365.751,472.542, 349.533,480.00, 336.00,480.00L 80.00,480.00 C 62.355,480.00, 48.00,465.645, 48.00,448.00l0.00-448.00 c0.00-17.645, 14.354-32.00, 32.00-32.00
		l 352.00,0.00 c 17.645,0.00, 32.00,14.355, 32.00,32.00L 464.00,336.00 C 464.00,348.702, 458.00,364.92, 449.735,374.562z M 352.00,459.633c 4.142-2.112, 7.88-4.826, 10.412-7.781
		l 75.175-87.704c 2.649-3.092, 5.069-7.469, 6.913-12.148L 352.00,352.00 L 352.00,459.633 z M 448.00,0.00c0.00-8.80-7.20-16.00-16.00-16.00L 80.00-16.00 c-8.80,0.00-16.00,7.20-16.00,16.00L 64.00,448.00 
		c0.00,8.80, 7.20,16.00, 16.00,16.00l 256.00,0.00 l0.00-128.00 l 112.00,0.00 L 448.00,0.00 zM 192.00,192.00l0.00,64.00 c0.00,8.477, 3.348,16.493, 9.427,22.573C 207.507,284.652, 215.523,288.00, 224.00,288.00l0.00,32.00 c-35.20,0.00-64.00-28.80-64.00-64.00l0.00-48.00 
		c0.00-8.837-7.164-16.00-16.00-16.00l-16.00,0.00 l0.00-32.00 l 16.00,0.00 c 8.837,0.00, 16.00-7.163, 16.00-16.00l0.00-48.00 c0.00-35.20, 28.80-64.00, 64.00-64.00l0.00,32.00 c-8.477,0.00-16.494,3.348-22.573,9.428
		C 195.348,79.507, 192.00,87.523, 192.00,96.00l0.00,64.00 c0.00,8.837-7.164,16.00-16.00,16.00C 184.837,176.00, 192.00,183.163, 192.00,192.00zM 320.00,160.00l0.00-64.00 c0.00-8.477-3.348-16.493-9.427-22.572C 304.494,67.348, 296.478,64.00, 288.00,64.00l0.00-32.00 c 35.201,0.00, 64.00,28.80, 64.00,64.00l0.00,48.00 
		c0.00,8.837, 7.164,16.00, 16.00,16.00l 16.00,0.00 l0.00,32.00 l-16.00,0.00 c-8.836,0.00-16.00,7.163-16.00,16.00l0.00,48.00 c0.00,35.20-28.799,64.00-64.00,64.00l0.00-32.00 c 8.478,0.00, 16.494-3.348, 22.573-9.428
		C 316.653,272.493, 320.00,264.477, 320.00,256.00l0.00-64.00 c0.00-8.837, 7.164-16.00, 16.00-16.00C 327.164,176.00, 320.00,168.837, 320.00,160.00z" />
<glyph unicode="&#x003c;" d="M 449.735,374.562l-75.173,87.703C 365.751,472.542, 349.533,480.00, 336.00,480.00L 80.00,480.00 C 62.355,480.00, 48.00,465.645, 48.00,448.00l0.00-448.00 c0.00-17.645, 14.354-32.00, 32.00-32.00
		l 352.00,0.00 c 17.645,0.00, 32.00,14.355, 32.00,32.00L 464.00,336.00 C 464.00,348.702, 458.00,364.92, 449.735,374.562z M 352.00,459.633c 4.142-2.112, 7.88-4.826, 10.412-7.781
		l 75.175-87.704c 2.649-3.092, 5.069-7.469, 6.913-12.148L 352.00,352.00 L 352.00,459.633 z M 448.00,0.00c0.00-8.80-7.20-16.00-16.00-16.00L 80.00-16.00 c-8.80,0.00-16.00,7.20-16.00,16.00L 64.00,448.00 
		c0.00,8.80, 7.20,16.00, 16.00,16.00l 256.00,0.00 l0.00-128.00 l 112.00,0.00 L 448.00,0.00 zM 294.112,206.287c-19.817,18.503-36.43,44.212-46.739,73.019c 0.707,2.758, 1.386,5.453, 2.00,8.177
		c 2.869,12.896, 4.924,55.508, 4.924,55.508s-8.151-32.012-9.435-36.842c-0.824-3.064-1.863-6.335-3.042-9.739
		c-6.251,21.983-9.433,43.311-9.433,59.468c0.00,4.574, 0.39,13.445, 1.688,20.473c 0.627,5.014, 2.459,7.619, 4.341,8.877
		c 3.731-0.906, 7.895-6.623, 12.252-16.191c 3.743-8.27, 3.511-17.853, 3.511-23.782c0.00,0.00, 4.014,14.584, 3.086,23.262
		c-0.563,5.211-5.525,18.861-16.062,18.349l-0.86,0.00 l-4.689,0.172c-7.694,0.00-14.893-3.719-16.633-9.934
		c-6.466-23.838, 0.771-60.678, 12.84-106.604l-3.653-8.879c-9.238-22.521-20.782-44.946-30.941-64.856
		c-41.931-82.047-74.548-126.311-96.297-129.41l-0.093,0.895c-0.473,10.232, 18.426,36.631, 44.027,57.609
		c 2.668,2.166, 14.055,13.186, 14.055,13.186s-15.38-8.131-18.833-10.221c-32.077-19.154-48.047-38.338-50.649-51.072
		c-0.771-3.783-0.262-8.43, 3.074-10.338l 8.208-4.125c 22.328-11.182, 49.771,18.203, 86.276,82.178
		c 37.147,12.186, 83.491,23.666, 125.69,29.881c 37.77-21.582, 81.094-31.857, 97.738-27.416c 3.166,0.838, 6.506,3.318, 8.207,5.611
		c 1.334,2.109, 3.19,10.549, 3.19,10.549s-3.125-4.279-5.701-5.535c-10.541-4.975-43.797,3.322-77.932,20.023
		c 29.514,3.141, 54.107,3.27, 67.25-0.93c 16.686-5.326, 16.686-10.797, 16.463-11.906c 0.223,0.918, 0.98,4.578, 0.891,6.137
		c-0.38,4.00-1.605,7.572-4.632,10.529c-6.18,6.086-21.438,9.162-42.223,9.436c-15.668,0.174-34.447-1.203-54.844-4.117
		C 311.79,193.094, 301.924,198.982, 294.112,206.287z M 190.386,153.314c 6.319,11.23, 13.166,23.459, 20.169,36.648
		c 13.558,25.639, 21.776,45.43, 28.689,64.054c 10.899-21.924, 25.938-42.757, 45.665-59.456c 4.396-3.723, 9.069-7.242, 13.882-10.564
		C 262.974,177.336, 225.346,167.961, 190.386,153.314z" />
<glyph unicode="&#x0026;" d="M 426.655,480.00L 85.345,480.00 C 38.405,480.00,0.00,441.608,0.00,394.671l0.00-341.328 C0.00,6.405, 38.405-32.00, 85.345-32.00l 341.311,0.00 
	C 473.625-32.00, 512.00,6.405, 512.00,53.343L 512.00,394.671 C 512.00,441.608, 473.625,480.00, 426.655,480.00z M 128.00,352.00l 256.00,0.00 c 4.569,0.00, 9.002-0.981, 13.072-2.831
	L 256.00,184.585L 114.928,349.17C 118.998,351.018, 123.431,352.00, 128.00,352.00z M 96.00,128.00L 96.00,320.00 c0.00,0.67, 0.028,1.336, 0.07,2.00l 93.832-109.47
	L 97.103,119.73C 96.381,122.399, 96.00,125.173, 96.00,128.00z M 384.00,96.00L 128.00,96.00 c-2.827,0.00-5.601,0.381-8.27,1.103l 91.059,91.059L 256.00,135.414
	l 45.212,52.747l 91.058-91.059C 389.60,96.381, 386.827,96.00, 384.00,96.00z M 416.00,128.00c0.00-2.827-0.381-5.60-1.103-8.27l-92.799,92.799L 415.93,322.00
	c 0.042-0.664, 0.07-1.33, 0.07-2.00L 416.00,128.00 z" />
<glyph unicode="&#x0027;" d="M 160.00,352.00L 32.00,224.00L 160.00,96.00L 224.00,96.00L 96.00,224.00L 224.00,352.00 	zM 352.00,352.00L 288.00,352.00L 416.00,224.00L 288.00,96.00L 352.00,96.00L 480.00,224.00 	z" />
<glyph unicode="&#x0028;" d="M 384.00,160.00L 256.00,288.00L 128.00,160.00 z" />
<glyph unicode="&#x0029;" d="M 192.001,96.00L 320.001,224.00L 192.001,352.00 z" />
<glyph unicode="&#x002a;" d="M 128.00,288.00L 256.00,160.00L 384.00,288.00 z" />
<glyph unicode="&#x002d;" d="M 320.001,352.00L 192.001,224.00L 320.001,95.999 z" />
<glyph unicode="&#x002e;" d="M 377.594,448.00c-53.815,0.00-100.129-43.777-121.582-89.50C 234.543,404.222, 188.223,448.00, 134.404,448.00C 60.213,448.00,0.00,387.78,0.00,313.584
	c0.00-150.923, 152.25-190.497, 256.011-339.709C 354.088,122.163, 512.00,167.478, 512.00,313.584C 512.00,387.78, 451.785,448.00, 377.594,448.00z" />
<glyph unicode="&#x002f;" d="M 256.00,480.00C 114.615,480.00,0.00,365.385,0.00,224.00s 114.615-256.00, 256.00-256.00s 256.00,114.615, 256.00,256.00S 397.385,480.00, 256.00,480.00z M 288.00,192.00l0.00-160.00 l-64.00,0.00 L 224.00,192.00 L 64.00,192.00 l0.00,64.00 
	l 160.00,0.00 L 224.00,416.00 l 64.00,0.00 l0.00-160.00 l 160.00,0.00 l0.00-64.00 L 288.00,192.00 z" />
<glyph unicode="&#x0030;" d="M 256.00,480.00C 114.615,480.00,0.00,365.385,0.00,224.00s 114.615-256.00, 256.00-256.00s 256.00,114.615, 256.00,256.00S 397.385,480.00, 256.00,480.00z M 64.00,192.00l0.00,64.00 l 384.00,0.00 l0.00-64.00 L 64.00,192.00 z" />
<glyph unicode="&#x0031;" d="M 256.00,352.00C 114.615,352.00,0.00,237.386,0.00,96.00l 32.00,0.00 c0.00,58.209, 25.903,110.363, 66.811,145.574l 108.423-135.527
	c-0.665-3.245-1.014-6.604-1.014-10.047c0.00-27.492, 22.287-49.779, 49.779-49.779c 27.493,0.00, 49.779,22.287, 49.779,49.779
	s-22.286,49.781-49.779,49.781c-3.441,0.00-6.802-0.351-10.046-1.016L 111.979,251.947c 31.528,22.688, 70.213,36.054, 112.021,36.054
	c 106.038,0.00, 192.00-85.96, 192.00-191.999l 96.00,0.00 C 512.00,237.386, 397.385,352.00, 256.00,352.00z" />
<glyph unicode="&#x0033;" d="M 256.00,352.00C 114.615,352.00,0.00,237.386,0.00,96.00l 32.00,0.00 c0.00,106.039, 85.961,192.00, 192.00,192.00c 7.167,0.00, 14.241-0.396, 21.205-1.16l-16.586-149.264
	c-13.494-8.904-22.399-24.199-22.399-41.576c0.00-27.492, 22.288-49.779, 49.78-49.779S 305.78,68.508, 305.78,96.00
	c0.00,17.377-8.904,32.672-22.398,41.576l-16.172,145.542C 352.44,263.517, 416.00,187.182, 416.00,96.00l 96.00,0.00 C 512.00,237.386, 397.385,352.00, 256.00,352.00z" />
<glyph unicode="&#x0034;" d="M 416.00,96.00l 96.00,0.00 c0.00,141.386-114.615,256.00-256.00,256.00S0.00,237.386,0.00,96.00l 32.00,0.00 c0.00,106.039, 85.961,192.00, 192.00,192.00
	c 56.409,0.00, 107.136-24.326, 142.263-63.061l-100.217-80.174c-3.245,0.665-6.604,1.016-10.046,1.016
	c-27.493,0.00-49.78-22.289-49.78-49.781s 22.287-49.779, 49.78-49.779c 27.492,0.00, 49.778,22.287, 49.778,49.779
	c0.00,3.44-0.349,6.802-1.014,10.047l 78.166,97.707C 403.803,173.031, 416.00,135.941, 416.00,96.00z" />
<glyph unicode="&#x0035;" d="M 144.00,320.00L 80.00,320.00 c-8.80,0.00-16.00-7.20-16.00-16.00l0.00-32.00 c0.00-8.80, 7.20-16.00, 16.00-16.00l 64.00,0.00 c 8.80,0.00, 16.00,7.20, 16.00,16.00l0.00,32.00 C 160.00,312.80, 152.80,320.00, 144.00,320.00zM 96.00,416.00L 128.00,416.00L 128.00,336.00L 96.00,336.00zM 96.00,240.00L 128.00,240.00L 128.00,32.00L 96.00,32.00zM 272.00,192.00l-64.00,0.00 c-8.80,0.00-16.00-7.20-16.00-16.00l0.00-32.00 c0.00-8.80, 7.20-16.00, 16.00-16.00l 64.00,0.00 c 8.801,0.00, 16.00,7.20, 16.00,16.00l0.00,32.00 C 288.00,184.80, 280.801,192.00, 272.00,192.00zM 224.001,416.00L 256.001,416.00L 256.001,208.00L 224.001,208.00zM 224.001,112.00L 256.001,112.00L 256.001,32.00L 224.001,32.00zM 400.00,288.00l-64.00,0.00 c-8.799,0.00-16.00-7.20-16.00-16.00l0.00-32.00 c0.00-8.80, 7.201-16.00, 16.00-16.00l 64.00,0.00 c 8.801,0.00, 16.00,7.20, 16.00,16.00l0.00,32.00 C 416.00,280.80, 408.801,288.00, 400.00,288.00zM 352.00,416.00L 384.00,416.00L 384.00,304.00L 352.00,304.00zM 352.00,208.00L 384.00,208.00L 384.00,32.00L 352.00,32.00zM 440.00,480.00L 40.00,480.00 C 17.944,480.00,0.00,462.056,0.00,440.00l0.00-432.00 c0.00-22.056, 17.944-40.00, 40.00-40.00l 400.00,0.00 c 22.056,0.00, 40.00,17.944, 40.00,40.00L 480.00,440.00 
		C 480.00,462.056, 462.056,480.00, 440.00,480.00z M 448.00,8.00c0.00-4.40-3.60-8.00-8.00-8.00L 40.00,0.00 c-4.40,0.00-8.00,3.60-8.00,8.00L 32.00,440.00 c0.00,4.40, 3.60,8.00, 8.00,8.00l 400.00,0.00 c 4.40,0.00, 8.00-3.60, 8.00-8.00L 448.00,8.00 z" />
<glyph unicode="&#x0036;" d="M 448.00,128.00L 448.00,64.00L 64.00,64.00L 64.00,128.00L0.00,128.00L0.00,0.00L 512.00,0.00L 512.00,128.00 	zM 384.00,288.00L 288.00,288.00L 288.00,448.00L 224.00,448.00L 224.00,288.00L 128.00,288.00L 256.00,96.00 	z" />
<glyph unicode="&#x0037;" d="M 448.00,128.00L 448.00,64.00L 64.00,64.00L 64.00,128.00L0.00,128.00L0.00,0.00L 512.00,0.00L 512.00,128.00 	zM 128.00,256.00L 224.00,256.00L 224.00,96.00L 288.00,96.00L 288.00,256.00L 384.00,256.00L 256.00,448.00 	z" />
<glyph unicode="&#x0038;" d="M 192.00,448.00L 320.00,448.00L 320.00,320.00L 192.00,320.00zM 192.00,288.00L 320.00,288.00L 320.00,160.00L 192.00,160.00zM 192.00,128.00L 320.00,128.00L 320.00,0.00L 192.00,0.00z" />
<glyph unicode="&#x0039;" d="M 192.00,384.00A64.00,64.00 1260.00 1,0 320.00,384A64.00,64.00 1260.00 1,0 192.00,384zM 192.00,224.00A64.00,64.00 1260.00 1,0 320.00,224A64.00,64.00 1260.00 1,0 192.00,224zM 192.00,64.00A64.00,64.00 1260.00 1,0 320.00,64A64.00,64.00 1260.00 1,0 192.00,64z" />
<glyph unicode="&#x003a;" d="M 464.00,320.00L 352.00,320.00 L 352.00,384.00 c0.00,17.60-14.40,32.00-32.00,32.00L 192.00,416.00 c-17.602,0.00-32.00-14.40-32.00-32.00l0.00-64.00 L 48.00,320.00 c-26.40,0.00-48.00-21.60-48.00-48.00l0.00-224.00 c0.00-26.40, 21.60-48.00, 48.00-48.00
	l 416.00,0.00 c 26.398,0.00, 48.00,21.60, 48.00,48.00L 512.00,272.00 C 512.00,298.40, 490.401,320.00, 464.00,320.00z M 192.00,383.943c 0.016,0.02, 0.037,0.041, 0.058,0.057l 127.887,0.00 
	c 0.021-0.018, 0.04-0.038, 0.058-0.057L 320.003,320.00 L 192.00,320.00 L 192.00,383.943 z" />
<glyph unicode="&#x003b;" d="M 256.00,480.00C 114.844,480.00,0.00,365.162,0.00,223.999C0.00,82.838, 114.844-32.00, 256.00-32.00c 141.155,0.00, 256.00,114.838, 256.00,255.999
		C 512.00,365.162, 397.156,480.00, 256.00,480.00z M 256.00,24.889c-109.789,0.00-199.11,89.323-199.11,199.11c0.00,109.79, 89.322,199.112, 199.11,199.112
		s 199.11-89.322, 199.11-199.112C 455.113,114.212, 365.788,24.889, 256.00,24.889zM 256.00,366.223c-78.422,0.00-142.224-63.801-142.224-142.224c0.00-78.421, 63.801-142.224, 142.224-142.224
		s 142.223,63.803, 142.223,142.224C 398.223,302.422, 334.423,366.223, 256.00,366.223z M 256.00,138.666
		c-47.058,0.00-85.334,38.277-85.334,85.333c0.00,47.058, 38.276,85.335, 85.334,85.335c 47.056,0.00, 85.335-38.277, 85.335-85.335
		C 341.335,176.943, 303.056,138.666, 256.00,138.666zM 224.00,224.00A32.00,32.00 4860.00 1,0 288.00,224A32.00,32.00 4860.00 1,0 224.00,224z" />
<glyph unicode="&#x003d;" d="M 256.00,480.00C 114.615,480.00,0.00,365.385,0.00,224.00s 114.615-256.00, 256.00-256.00s 256.00,114.615, 256.00,256.00S 397.385,480.00, 256.00,480.00z M 391.765,88.235
	C 363.16,59.631, 327.117,41.174, 288.00,34.648L 288.00,128.00 l-64.00,0.00 l0.00-93.352 c-39.117,6.525-75.16,24.982-103.765,53.587
	C 91.632,116.84, 73.174,152.883, 66.649,192.00L 160.00,192.00 l0.00,64.00 L 66.649,256.00 c 6.525,39.117, 24.983,75.16, 53.587,103.765
	C 148.84,388.369, 184.883,406.826, 224.00,413.352L 224.00,320.00 l 64.00,0.00 L 288.00,413.352 c 39.117-6.525, 75.16-24.983, 103.765-53.587
	c 28.604-28.604, 47.062-64.647, 53.587-103.765L 352.00,256.00 l0.00-64.00 l 93.352,0.00 C 438.826,152.883, 420.369,116.84, 391.765,88.235z" />
<glyph unicode="&#x003e;" d="M 192.00,416.00A64.00,64.00 4860.00 1,0 320.00,416A64.00,64.00 4860.00 1,0 192.00,416zM 327.765,359.765A64.00,64.00 4860.00 1,0 455.765,359.765A64.00,64.00 4860.00 1,0 327.765,359.765zM 416.00,224.00A32.00,32.00 4860.00 1,0 480.00,224A32.00,32.00 4860.00 1,0 416.00,224zM 359.765,88.235A32.00,32.00 4860.00 1,0 423.765,88.23500000000001A32.00,32.00 4860.00 1,0 359.765,88.23500000000001zM 224.001,32.00A32.00,32.00 4860.00 1,0 288.001,32A32.00,32.00 4860.00 1,0 224.001,32zM 88.236,88.235A32.00,32.00 4860.00 1,0 152.236,88.23500000000001A32.00,32.00 4860.00 1,0 88.236,88.23500000000001zM 72.236,359.765A48.00,48.00 4860.00 1,0 168.236,359.765A48.00,48.00 4860.00 1,0 72.236,359.765zM 28.00,224.00A36.00,36.00 4860.00 1,0 100.00,224A36.00,36.00 4860.00 1,0 28.00,224z" />
<glyph unicode="&#x003f;" d="M 512.00,224.00c-0.639,33.431-7.892,66.758-21.288,97.231c-13.352,30.50-32.731,58.129-56.521,80.96
	c-23.776,22.848-51.972,40.91-82.492,52.826C 321.197,466.979, 288.401,472.693, 256.00,472.00c-32.405-0.641-64.666-7.687-94.167-20.678
	c-29.524-12.948-56.271-31.735-78.367-54.788c-22.112-23.041-39.58-50.354-51.093-79.899C 20.816,287.104, 15.309,255.375, 16.00,224.00
	c 0.643-31.38, 7.482-62.574, 20.067-91.103c 12.544-28.55, 30.738-54.414, 53.055-75.774c 22.305-21.377, 48.736-38.252, 77.307-49.36
	C 194.988-3.389, 225.652-8.688, 256.00-8.00c 30.354,0.645, 60.481,7.277, 88.038,19.457c 27.575,12.141, 52.558,29.74, 73.183,51.322
	c 20.641,21.57, 36.922,47.118, 47.627,74.715c 6.517,16.729, 10.94,34.20, 13.271,51.899c 0.623-0.036, 1.249-0.06, 1.881-0.06
	c 17.673,0.00, 32.00,14.326, 32.00,32.00c0.00,0.898-0.047,1.786-0.119,2.666L 512.00,223.999 z M 461.153,139.026c-11.736-26.601-28.742-50.70-49.589-70.59
	c-20.835-19.905-45.50-35.593-72.122-45.895C 312.828,12.202, 284.297,7.315, 256.00,8.00c-28.302,0.649-56.298,6.868-81.91,18.237
	c-25.625,11.333-48.842,27.745-67.997,47.856c-19.169,20.099-34.264,43.882-44.161,69.529C 51.997,169.264, 47.318,196.729, 48.00,224.00
	c 0.651,27.276, 6.664,54.206, 17.627,78.845c 10.929,24.65, 26.749,46.985, 46.123,65.405c 19.365,18.434, 42.265,32.935, 66.937,42.428
	C 203.356,420.208, 229.755,424.681, 256.00,424.00c 26.25-0.653, 52.114-6.459, 75.781-17.017c 23.676-10.525, 45.128-25.751, 62.812-44.391
	c 17.698-18.629, 31.605-40.647, 40.695-64.344C 444.412,274.552, 448.679,249.219, 448.00,224.00l 0.119,0.00 c-0.072-0.88-0.119-1.768-0.119-2.666
	c0.00-16.506, 12.496-30.087, 28.543-31.812C 473.431,172.111, 468.278,155.113, 461.153,139.026z" />
<glyph unicode="&#x0040;" d="M 304.00,256.00l-16.00,0.00 l0.00,64.00 c0.00,70.692-57.308,128.00-128.00,128.00S 32.00,390.692, 32.00,320.00l0.00-64.00 L 16.00,256.00 c-8.80,0.00-16.00-7.20-16.00-16.00l0.00-224.00 c0.00-8.80, 7.20-16.00, 16.00-16.00l 288.00,0.00 
	c 8.80,0.00, 16.00,7.20, 16.00,16.00L 320.00,240.00 C 320.00,248.80, 312.80,256.00, 304.00,256.00z M 186.465,135.959L 192.00,64.00l-64.00,0.00 l 5.535,71.959
	C 120.561,144.551, 112.00,159.272, 112.00,176.00c0.00,26.51, 21.49,48.00, 48.00,48.00s 48.00-21.49, 48.00-48.00C 208.00,159.272, 199.439,144.551, 186.465,135.959z M 64.00,256.00
	l0.00,64.00 c0.00,53.02, 42.98,96.00, 96.00,96.00s 96.00-42.98, 96.00-96.00l0.00-64.00 L 64.00,256.00 z" />
<glyph unicode="&#x0043;" d="M 384.00,448.00c-70.692,0.00-128.00-57.308-128.00-128.00l0.00-64.00 L 16.00,256.00 c-8.80,0.00-16.00-7.20-16.00-16.00l0.00-224.00 c0.00-8.80, 7.20-16.00, 16.00-16.00l 288.00,0.00 c 8.80,0.00, 16.00,7.20, 16.00,16.00L 320.00,240.00 
	c0.00,8.80-7.20,16.00-16.00,16.00l-16.00,0.00 l0.00,64.00 c0.00,53.02, 42.98,96.00, 96.00,96.00s 96.00-42.98, 96.00-96.00l0.00-64.00 l 32.00,0.00 l0.00,64.00 C 512.00,390.692, 454.693,448.00, 384.00,448.00z M 186.465,135.959
	L 192.00,64.00l-64.00,0.00 l 5.535,71.959C 120.561,144.551, 112.00,159.272, 112.00,176.00c0.00,26.51, 21.49,48.00, 48.00,48.00s 48.00-21.49, 48.00-48.00
	C 208.00,159.272, 199.439,144.551, 186.465,135.959z" />
<glyph unicode="&#x0044;" d="M 96.00,320.00L 256.00,320.00L 256.00,288.00L 96.00,288.00zM 318.771,201.076C 339.674,230.021, 352.00,265.568, 352.00,304.00C 352.00,401.202, 273.202,480.00, 176.00,480.00S0.00,401.202,0.00,304.00s 78.798-176.00, 176.00-176.00
		c 38.432,0.00, 73.979,12.326, 102.924,33.229L 448.00-32.00l 64.00,64.00L 318.771,201.076z M 176.00,176.00c-70.692,0.00-128.00,57.308-128.00,128.00S 105.308,432.00, 176.00,432.00
		s 128.00-57.308, 128.00-128.00S 246.693,176.00, 176.00,176.00z" />
<glyph unicode="&#x0045;" d="M 192.00,384.00L 160.00,384.00L 160.00,320.00L 96.00,320.00L 96.00,288.00L 160.00,288.00L 160.00,224.00L 192.00,224.00L 192.00,288.00L 256.00,288.00L 256.00,320.00L 192.00,320.00 	zM 318.771,201.076C 339.674,230.021, 352.00,265.568, 352.00,304.00C 352.00,401.202, 273.202,480.00, 176.00,480.00S0.00,401.202,0.00,304.00s 78.798-176.00, 176.00-176.00
		c 38.432,0.00, 73.979,12.326, 102.924,33.229L 448.00-32.00l 64.00,64.00L 318.771,201.076z M 176.00,176.00c-70.692,0.00-128.00,57.308-128.00,128.00S 105.308,432.00, 176.00,432.00
		s 128.00-57.308, 128.00-128.00S 246.693,176.00, 176.00,176.00z" />
<glyph unicode="&#x0046;" d="M 449.077,10.754l-114.54,168.305c 65.459,51.835, 83.963,145.677, 39.835,219.126
		C 326.445,477.959, 222.559,503.857, 142.793,455.94C 63.028,408.007, 37.131,304.124, 85.054,224.357
		c 43.213-71.942, 131.962-100.047, 207.479-69.717l 95.143-180.783c 2.95-5.611, 9.802-7.523, 15.229-4.273l 42.784,25.72
		C 451.126-1.433, 452.653,5.518, 449.077,10.754z M 288.781,212.968c-54.211-32.563-124.808-14.959-157.375,39.253
		c-32.565,54.197-14.952,124.794, 39.253,157.36c 54.189,32.57, 124.787,14.961, 157.351-39.245
		C 360.579,316.138, 342.978,245.525, 288.781,212.968z" />
<glyph unicode="&#x0047;" d="M 128.00,320.00A128.00,128.00 4860.00 1,0 384.00,320A128.00,128.00 4860.00 1,0 128.00,320zM 384.00,160.00L 128.00,160.00 C 57.308,160.00,0.00,102.691,0.00,32.00l0.00-32.00 l 4.033,0.00 l 503.934,0.00 L 512.00,0.00 l0.00,32.00 C 512.00,102.691, 454.692,160.00, 384.00,160.00z" />
<glyph unicode="&#x0048;" d="M 480.00,416.00L 32.00,416.00 C 14.40,416.00,0.00,401.60,0.00,384.00l0.00-224.00 c0.00-17.60, 14.40-32.00, 32.00-32.00l 64.00,0.00 l0.00-96.00 l 72.00,96.00l 312.00,0.00 c 17.60,0.00, 32.00,14.40, 32.00,32.00L 512.00,384.00 
	C 512.00,401.60, 497.60,416.00, 480.00,416.00z M 160.00,224.00L 96.00,224.00 l0.00,64.00 l 64.00,0.00 L 160.00,224.00 z M 288.00,224.00l-64.00,0.00 l0.00,64.00 l 64.00,0.00 L 288.00,224.00 z M 416.00,224.00l-64.00,0.00 l0.00,64.00 l 64.00,0.00 L 416.00,224.00 z" />
<glyph unicode="&#x0049;" d="M 255.993,471.963C 114.606,471.963, 0.001,385.424, 0.001,278.684c0.00-83.391, 69.951-154.469, 167.963-181.565
	c 1.438-8.104, 3.25-19.646, 3.25-26.787c0.00-33.625-12.867-65.518-35.788-94.295c 35.444,14.928, 85.475,62.898, 116.473,109.432
	c 1.367-0.016, 2.729-0.084, 4.095-0.084c 141.40,0.00, 256.007,86.539, 256.007,193.299C 512.002,385.424, 397.395,471.963, 255.993,471.963z" />
<glyph unicode="&#x004a;" d="M 464.00,480.00L 48.00,480.00 C 21.60,480.00,0.00,458.40,0.00,432.00l0.00-320.00 c0.00-26.40, 21.60-48.00, 48.00-48.00l 112.00,0.00 l 96.00-96.00l 96.00,96.00l 112.00,0.00 c 26.40,0.00, 48.00,21.60, 48.00,48.00L 512.00,432.00 
	C 512.00,458.40, 490.401,480.00, 464.00,480.00z" />
<glyph unicode="&#x004b;" d="M 464.00,352.00L 176.00,352.00 c-26.40,0.00-48.00-21.60-48.00-48.00l0.00-224.00 c0.00-26.40, 21.60-48.00, 48.00-48.00l 80.00,0.00 l 64.00-64.00l 64.00,64.00l 80.00,0.00 c 26.40,0.00, 48.00,21.60, 48.00,48.00L 512.00,304.00 
		C 512.00,330.40, 490.401,352.00, 464.00,352.00zM 384.00,432.00c0.00,26.40-21.60,48.00-48.00,48.00L 48.00,480.00 C 21.60,480.00,0.00,458.40,0.00,432.00l0.00-224.00 c0.00-26.40, 21.60-48.00, 48.00-48.00l 16.00,0.00 L 64.00,368.00 c0.00,26.51, 21.49,48.00, 48.00,48.00l 272.00,0.00 L 384.00,432.00 z" />
<glyph unicode="&#x004c;" d="M 384.00,480.00L 96.00,480.00 C 78.40,480.00, 64.00,465.601, 64.00,448.00l0.00-448.00 c0.00-17.60, 14.399-32.00, 32.00-32.00l 288.00,0.00 c 17.60,0.00, 32.00,14.40, 32.00,32.00L 416.00,448.00 C 416.00,465.601, 401.60,480.00, 384.00,480.00z
	 M 240.00-8.891c-13.746,0.00-24.891,11.145-24.891,24.891s 11.145,24.891, 24.891,24.891s 24.891-11.145, 24.891-24.891
	S 253.746-8.891, 240.00-8.891z M 384.00,64.00L 96.00,64.00 L 96.00,416.00 l 288.00,0.00 L 384.00,64.00 z" />
<glyph unicode="&#x004d;" d="M 512.00,64.00L 512.00,448.00 L0.00,448.00 l0.00-384.00 l 224.00,0.00 l0.00-32.00 l-96.00,0.00 l0.00-32.00 l 256.00,0.00 l0.00,32.00 l-96.00,0.00 l0.00,32.00 L 512.00,64.00 z M 64.00,384.00l 384.00,0.00 l0.00-256.00 L 64.00,128.00 L 64.00,384.00 z" />
<glyph unicode="&#x004e;" d="M 448.00,128.00L 448.00,384.00 c0.00,17.60-14.40,32.00-32.00,32.00L 96.00,416.00 c-17.60,0.00-32.00-14.40-32.00-32.00l0.00-256.00 L0.00,128.00 l0.00-96.00 l 512.00,0.00 l0.00,96.00 L 448.00,128.00 z M 320.00,64.00L 192.00,64.00 l0.00,32.00 l 128.00,0.00 L 320.00,64.00 z M 416.00,128.00L 96.00,128.00 
	L 96.00,383.943 c 0.017,0.02, 0.038,0.041, 0.057,0.057l 319.885,0.00 c 0.02-0.017, 0.041-0.038, 0.058-0.058L 416.00,128.00 z" />
<glyph unicode="&#x004f;" d="M 160.00,288.00L 224.00,288.00L 224.00,224.00L 160.00,224.00zM 256.00,288.00L 320.00,288.00L 320.00,224.00L 256.00,224.00zM 352.00,288.00L 416.00,288.00L 416.00,224.00L 352.00,224.00zM 64.00,96.00L 128.00,96.00L 128.00,32.00L 64.00,32.00zM 160.00,96.00L 224.00,96.00L 224.00,32.00L 160.00,32.00zM 256.00,96.00L 320.00,96.00L 320.00,32.00L 256.00,32.00zM 160.00,192.00L 224.00,192.00L 224.00,128.00L 160.00,128.00zM 256.00,192.00L 320.00,192.00L 320.00,128.00L 256.00,128.00zM 352.00,192.00L 416.00,192.00L 416.00,128.00L 352.00,128.00zM 64.00,192.00L 128.00,192.00L 128.00,128.00L 64.00,128.00zM 416.00,480.00l0.00-32.00 l-64.00,0.00 L 352.00,480.00 L 128.00,480.00 l0.00-32.00 L 64.00,448.00 L 64.00,480.00 L0.00,480.00 l0.00-512.00 l 480.00,0.00 L 480.00,480.00 L 416.00,480.00 z M 448.00,0.00L 32.00,0.00 L 32.00,352.00 l 416.00,0.00 L 448.00,0.00 z" />
<glyph unicode="&#x0050;" d="M 256.00,480.00c-81.67,0.00-147.871-66.202-147.871-147.87c0.00-2.014, 0.061-4.101, 0.16-6.224c 0.05-1.234, 0.126-2.454, 0.209-3.682
	c 0.051-0.779, 0.113-1.574, 0.18-2.371c 0.104-1.304, 0.21-2.61, 0.35-3.906C 121.292,196.493, 256.001-32.00, 256.001-32.00
	s 134.705,228.492, 146.97,347.948c 0.143,1.295, 0.245,2.603, 0.351,3.905c 0.065,0.797, 0.131,1.592, 0.183,2.371
	c 0.084,1.229, 0.158,2.447, 0.21,3.683c 0.097,2.124, 0.157,4.211, 0.157,6.224C 403.866,413.799, 337.666,480.00, 256.00,480.00z M 320.00,320.00
	c0.00-35.347-28.654-64.00-64.00-64.00c-35.346,0.00-64.00,28.653-64.00,64.00s 28.654,64.00, 64.00,64.00C 291.346,384.00, 320.00,355.347, 320.00,320.00z" />
<glyph unicode="&#x0051;" d="M 466.895,174.875c-26.863,46.527-10.708,106.152, 36.076,133.244l-50.313,87.146c-14.375-8.427-31.088-13.259-48.923-13.259
	c-53.768,0.00-97.354,43.873-97.354,97.995L 205.752,480.001 c 0.133-16.705-4.037-33.641-12.979-49.126
	c-26.862-46.528-86.578-62.351-133.431-35.379L 9.03,308.35c 14.485-8.236, 27.025-20.294, 35.943-35.739
	c 26.819-46.454, 10.756-105.96-35.854-133.112l 50.313-87.146c 14.325,8.348, 30.958,13.127, 48.70,13.127
	c 53.598,0.00, 97.072-43.596, 97.35-97.479l 100.627,0.00 c-0.043,16.537, 4.136,33.285, 12.983,48.609
	c 26.818,46.453, 86.388,62.297, 133.207,35.506l 50.313,87.145C 488.222,147.494, 475.766,159.51, 466.895,174.875z M 256.00,120.334
	c-57.254,0.00-103.668,46.412-103.668,103.667c0.00,57.254, 46.413,103.667, 103.668,103.667c 57.254,0.00, 103.666-46.413, 103.666-103.667
	C 359.665,166.746, 313.254,120.334, 256.00,120.334z" />
<glyph unicode="&#x0052;" d="M 325.608,214.818L 512.00,86.264L 512.00,382.211 	zM0.00,382.211L0.00,86.264L 186.388,214.836 	zM 256.00,152.309L 211.499,192.264L0.00,64.00L 512.00,64.00L 300.495,192.264 	zM 496.64,384.00L 15.36,384.00L 256.00,203.074 	z" />
<glyph unicode="&#x0053;" d="M 155.755,448.451l-13.09-340.294c-17.465,8.962-39.377,12.84-62.368,9.578c-49.574-7.021-85.271-44.418-79.729-83.517
	c 5.543-39.102, 50.223-65.101, 99.795-58.078c 43.996,6.235, 77.021,36.395, 80.022,70.43l 0.01-0.019c 0.006,0.077, 0.011,0.193, 0.018,0.28
	c 0.073,0.865, 0.115,1.741, 0.147,2.611c 1.846,35.143, 13.148,302.082, 13.148,302.082l 278.355,28.679l-12.572-240.41
	c-17.863,9.942-40.822,14.371-64.964,10.95c-49.574-7.028-85.268-44.417-79.726-83.521c 5.541-39.098, 50.221-65.102, 99.795-58.071
	c 44.933,6.36, 78.41,37.682, 80.166,72.604l 0.021,0.021C 495.742,97.752, 512.00,473.005, 512.00,473.005L 155.755,448.451z" />
<glyph unicode="&#x0054;" d="M 352.00,480.00L 32.00,480.00 l0.00-512.00 l 448.00,0.00 L 480.00,352.00 L 352.00,480.00z M 448.00,0.00L 64.00,0.00 L 64.00,448.00 l 288.00,0.00 l0.00-96.00 l 96.00,0.00 L 448.00,0.00 z" />
<glyph unicode="&#x0055;" d="M 449.735,374.562l-75.173,87.703C 365.751,472.542, 349.534,480.00, 336.00,480.00L 80.00,480.00 C 62.355,480.00, 48.00,465.645, 48.00,448.00l0.00-448.00 c0.00-17.645, 14.355-32.00, 32.00-32.00
	l 352.00,0.00 c 17.645,0.00, 32.00,14.355, 32.00,32.00L 464.00,336.00 C 464.00,348.702, 458.00,364.92, 449.735,374.562z M 352.00,459.633c 4.142-2.112, 7.88-4.826, 10.413-7.781
	l 75.174-87.704c 2.65-3.092, 5.07-7.469, 6.913-12.148L 352.00,352.00 L 352.00,459.633 z M 448.00,0.00c0.00-8.80-7.20-16.00-16.00-16.00L 80.00-16.00 c-8.80,0.00-16.00,7.20-16.00,16.00L 64.00,448.00 
	c0.00,8.80, 7.20,16.00, 16.00,16.00l 256.00,0.00 l0.00-128.00 l 112.00,0.00 L 448.00,0.00 z" />
<glyph unicode="&#x0056;" d="M 64.00,16.00A48.00,48.00 3060.00 1,0 160.00,16A48.00,48.00 3060.00 1,0 64.00,16zM 384.00,16.00A48.00,48.00 3060.00 1,0 480.00,16A48.00,48.00 3060.00 1,0 384.00,16zM 480.00,224.00L 480.00,416.00 L 64.00,416.00 C 64.00,451.346, 35.347,480.00,0.00,480.00l0.00-32.00 c 17.645,0.00, 32.00-14.355, 32.00-32.00l 24.037-206.027C 41.39,198.244, 32.00,180.223, 32.00,160.00
		c0.00-35.347, 28.654-64.00, 64.00-64.00l 384.00,0.00 l0.00,32.00 L 96.00,128.00 c-17.673,0.00-32.00,14.327-32.00,32.00c0.00,0.11, 0.007,0.218, 0.008,0.328L 480.00,224.00z" />
<glyph unicode="&#x0057;" d="M 321.788,108.854c-11.188-6.236-20.175-2.064-32.764,4.572c-11.46,8.748-45.402,35.438-81.226,71.188
		c-26.156,33.084-46.162,64.288-55.375,79.293c-0.625,1.66-0.944,2.632-0.944,2.632c-5.397,13.476-8.771,22.92-1.324,33.521
		c 6.854,9.727, 9.50,12.383, 18.24,20.108L 80.605,450.292c-10.604-7.728-27.018-25.106-40.509-44.378
		c-12.538-18.317-23.154-38.587-26.049-53.055c 15.295-55.117, 52.258-157.896, 120.583-231.325l-0.021-0.308
		C 200.339,40.198, 304.774-10.204, 360.18-32.00c 14.679,1.385, 35.938,9.844, 55.456,20.404c 20.598,11.415, 39.567,25.945, 48.329,35.685
		L 343.677,124.918C 335.08,117.008, 332.179,114.664, 321.788,108.854zM 205.61,351.342c 7.241,5.302, 5.313,14.944, 1.926,20.245L 140.957,473.50c-4.344,5.291-13.396,8.064-21.252,5.579L 92.272,460.698
		l 88.034-129.879L 205.61,351.342zM 492.949,82.154l-94.473,76.788c-4.93,3.918-14.313,6.838-20.325,0.188l-23.046-23.05l 120.047-101.015l 21.136,25.357
		C 499.573,67.986, 497.755,77.279, 492.949,82.154z" />
<glyph unicode="&#x0058;" d="M 224.00,288.00L 416.00,288.00L 416.00,256.00L 224.00,256.00zM 224.00,224.00L 416.00,224.00L 416.00,192.00L 224.00,192.00zM 224.00,160.00L 416.00,160.00L 416.00,128.00L 224.00,128.00zM 224.00,96.00L 352.00,96.00L 352.00,64.00L 224.00,64.00zM 480.00,384.00l-96.00,0.00 L 384.00,448.00 c0.00,17.60-14.40,32.00-32.00,32.00L 32.00,480.00 C 14.40,480.00,0.00,465.60,0.00,448.00l0.00-352.00 c0.00-17.60, 14.40-32.00, 32.00-32.00l 96.00,0.00 l0.00-64.00 c0.00-17.60, 14.40-32.00, 32.00-32.00l 320.00,0.00 
		c 17.60,0.00, 32.00,14.40, 32.00,32.00L 512.00,352.00 C 512.00,369.60, 497.60,384.00, 480.00,384.00z M 128.00,352.00l0.00-240.00 L 48.00,112.00 L 48.00,432.00 l 288.00,0.00 l0.00-48.00 L 160.00,384.00 C 142.40,384.00, 128.00,369.60, 128.00,352.00z M 464.00,16.00L 176.00,16.00 
		L 176.00,336.00 l 288.00,0.00 L 464.00,16.00 z" />
<glyph unicode="&#x0059;" d="M 512.00,192.00L 416.00,288.00L 416.00,384.00L 352.00,384.00L 352.00,352.00L 256.00,448.00L0.00,192.00L 64.00,192.00L 64.00,0.00L 224.00,0.00L 224.00,128.00L 288.00,128.00L 288.00,0.00L 448.00,0.00L 448.00,192.00 	z" />
<glyph unicode="&#x005a;" d="M 448.00,352.00L 448.00,416.00 L0.00,416.00 l0.00-352.00 c0.00-17.673, 14.327-32.00, 32.00-32.00l 432.00,0.00 c 26.511,0.00, 48.00,21.489, 48.00,48.00L 512.00,352.00 L 448.00,352.00 z M 416.00,64.00L 32.00,64.00 L 32.00,384.00 l 384.00,0.00 L 416.00,64.00 zM 64.00,320.00L 384.00,320.00L 384.00,288.00L 64.00,288.00zM 256.00,256.00L 384.00,256.00L 384.00,224.00L 256.00,224.00zM 256.00,192.00L 384.00,192.00L 384.00,160.00L 256.00,160.00zM 256.00,128.00L 352.00,128.00L 352.00,96.00L 256.00,96.00zM 64.00,256.00L 224.00,256.00L 224.00,96.00L 64.00,96.00z" />
<glyph unicode="&#x005b;" d="M 154.007,208.00A101.993,101.993 4860.00 1,0 357.993,208A101.993,101.993 4860.00 1,0 154.007,208zM 480.00,352.00L 368.00,352.00 c-8.00,32.00-16.00,64.00-48.00,64.00L 192.00,416.00 c-32.00,0.00-40.00-32.00-48.00-64.00L 32.00,352.00 c-17.60,0.00-32.00-14.40-32.00-32.00l0.00-256.00 c0.00-17.60, 14.40-32.00, 32.00-32.00l 448.00,0.00 
		c 17.60,0.00, 32.00,14.40, 32.00,32.00L 512.00,320.00 C 512.00,337.60, 497.60,352.00, 480.00,352.00z M 256.00,64.00c-79.529,0.00-144.00,64.471-144.00,144.00c0.00,79.529, 64.471,144.00, 144.00,144.00
		c 79.529,0.00, 144.00-64.471, 144.00-144.00C 400.00,128.471, 335.53,64.00, 256.00,64.00z M 480.00,288.00l-64.00,0.00 l0.00,32.00 l 64.00,0.00 L 480.00,288.00 z" />
<glyph unicode="&#x005c;" d="M0.00,416.00l0.00-384.00 l 512.00,0.00 L 512.00,416.00 L0.00,416.00 z M 480.00,64.00l-32.00,0.00 l-96.00,144.00l-64.00-48.00L 160.00,320.00L 64.00,64.00L 32.00,64.00 L 32.00,384.00 l 448.00,0.00 L 480.00,64.00 zM 352.00,304.00A48.00,48.00 4860.00 1,0 448.00,304A48.00,48.00 4860.00 1,0 352.00,304z" />
<glyph unicode="&#x005d;" d="M 288.00,480.00L0.00,192.00l 224.00-224.00l 288.00,288.00L 512.00,480.00 L 288.00,480.00 z M 416.00,337.60c-25.626,0.00-46.399,20.773-46.399,46.40S 390.374,430.40, 416.00,430.40
	s 46.40-20.773, 46.40-46.40S 441.626,337.60, 416.00,337.60z" />
<glyph unicode="&#x005e;" d="M 416.00,416.00L 96.00,416.00 c-52.80,0.00-96.00-43.20-96.00-96.00l0.00-192.00 c0.00-52.80, 43.20-96.00, 96.00-96.00l 320.00,0.00 c 52.80,0.00, 96.00,43.20, 96.00,96.00L 512.00,320.00 C 512.00,372.80, 468.80,416.00, 416.00,416.00z
		 M 480.00,128.00c0.00-16.989-6.687-33.031-18.827-45.173C 449.031,70.687, 432.99,64.00, 416.00,64.00L 96.00,64.00 c-16.989,0.00-33.031,6.687-45.172,18.827
		C 38.687,94.969, 32.00,111.011, 32.00,128.00L 32.00,320.00 c0.00,16.989, 6.687,33.031, 18.828,45.172S 79.011,384.00, 96.00,384.00l 320.00,0.00 
		c 16.989,0.00, 33.031-6.687, 45.173-18.828C 473.314,353.031, 480.00,336.989, 480.00,320.00L 480.00,128.00 zM 192.00,96.00L 352.00,224.00L 192.00,352.00 	z" />
<glyph unicode="&#x005f;" d="M 416.00,416.00L 96.00,416.00 c-52.80,0.00-96.00-43.20-96.00-96.00l0.00-192.00 c0.00-52.80, 43.20-96.00, 96.00-96.00l 320.00,0.00 c 52.80,0.00, 96.00,43.20, 96.00,96.00L 512.00,320.00 C 512.00,372.80, 468.80,416.00, 416.00,416.00z
	 M 192.00,96.00L 192.00,352.00 l 160.00-128.00L 192.00,96.00z" />
<glyph unicode="&#x0060;" d="M 384.00,256.00L 256.00,384.00L 128.00,256.00 	zM 128.00,160.00L 256.00,32.00L 384.00,160.00 	z" />
<glyph unicode="&#x0061;" d="M0.00,480.00l0.00-512.00 l 512.00,0.00 L 512.00,480.00 L0.00,480.00 z M 480.00,0.00L 32.00,0.00 L 32.00,448.00 l 448.00,0.00 L 480.00,0.00 zM 384.00,352.00L 224.00,192.00L 128.00,288.00L 64.00,224.00L 224.00,64.00L 448.00,288.00 	z" />
<glyph unicode="&#x0062;" d="M0.00,480.00l0.00-512.00 l 512.00,0.00 L 512.00,480.00 L0.00,480.00 z M 480.00,0.00L 32.00,0.00 L 32.00,448.00 l 448.00,0.00 L 480.00,0.00 z" />
<glyph unicode="&#x0063;" d="M 128.00,256.00L 128.00,192.001L 224.00,288.00L 224.00,96.001L 288.00,96.00L 288.001,288.00L 384.001,192.00L 384.001,256.00L 256.001,384.00 	zM0.00,224.00c0.00-141.384, 114.615-255.999, 256.00-256.00c 141.385,0.00, 256.00,114.615, 256.00,256.00c 0.001,141.385-114.614,256.00-256.00,256.00
		S0.00,365.385,0.00,224.00z M 480.001,224.00C 480.00,100.288, 379.712,0.00, 256.00,0.00C 132.288,0.001, 32.00,100.289, 32.00,224.00c0.00,123.712, 100.288,224.00, 224.00,224.00
		S 480.001,347.712, 480.001,224.00z" />
<glyph unicode="&#x0064;" d="M 288.00,352.00L 224.00,352.00L 320.00,256.00L 128.00,256.00L 128.00,192.00L 320.00,192.00L 224.00,96.00L 288.00,96.00L 416.00,224.00 	zM 256.00,480.00C 114.615,480.00,0.00,365.385,0.00,224.00s 114.615-256.00, 256.00-256.00s 256.00,114.615, 256.00,256.00S 397.385,480.00, 256.00,480.00z M 256.00,0.00
		C 132.288,0.00, 32.00,100.288, 32.00,224.00S 132.288,448.00, 256.00,448.00s 224.00-100.288, 224.00-224.00S 379.712,0.00, 256.00,0.00z" />
<glyph unicode="&#x0065;" d="M 384.00,192.00L 384.00,256.00L 288.00,160.00L 288.00,352.00L 224.00,352.00L 224.00,160.00L 128.00,256.00L 128.00,192.00L 256.00,64.00 	zM 512.00,224.00C 512.00,365.385, 397.385,480.00, 256.00,480.00S0.00,365.385,0.00,224.00s 114.615-256.00, 256.00-256.00S 512.00,82.615, 512.00,224.00z M 32.00,224.00
		C 32.00,347.712, 132.288,448.00, 256.00,448.00s 224.00-100.288, 224.00-224.00S 379.712,0.00, 256.00,0.00S 32.00,100.288, 32.00,224.00z" />
<glyph unicode="&#x0066;" d="M 224.00,96.00L 288.00,96.00L 192.00,192.00L 384.00,192.00L 384.00,256.00L 192.00,256.00L 288.00,352.00L 224.00,352.00L 96.00,224.00 	zM 256.00-32.00c 141.385,0.00, 256.00,114.615, 256.00,256.00S 397.385,480.00, 256.00,480.00C 114.615,480.00,0.00,365.385,0.00,224.00C0.00,82.615, 114.615-32.00, 256.00-32.00z
		 M 256.00,448.00c 123.712,0.00, 224.00-100.289, 224.00-224.00S 379.712,0.00, 256.00,0.00S 32.00,100.288, 32.00,224.00C 32.00,347.712, 132.288,448.00, 256.00,448.00z" />
<glyph unicode="&#x0067;" d="M 32.00,448.00L 32.00,128.00L 128.00,32.00L 128.00,256.00L 384.00,0.00L 480.00,96.00L 224.00,352.00L 448.00,352.00L 352.00,448.00 z" />
<glyph unicode="&#x0068;" d="M 32.00,256.00L 32.00,128.00L 192.00,288.00L 192.00-32.00L 320.00-32.00L 320.00,288.00L 480.00,128.00L 480.00,256.00L 256.00,480.00 z" />
<glyph unicode="&#x0069;" d="M 480.00,448.00L 160.00,448.00L 64.00,352.00L 288.00,352.00L 32.00,96.00L 128.00,0.00L 384.00,256.00L 384.00,32.00L 480.00,128.00 z" />
<glyph unicode="&#x006a;" d="M 288.00,448.00L 160.00,448.00L 320.00,288.00L0.00,288.00L0.00,160.00L 320.00,160.00L 160.00,0.00L 288.00,0.00L 512.00,224.00 z" />
<glyph unicode="&#x006b;" d="M 480.00,0.00L 480.00,320.00L 384.00,416.00L 384.00,192.00L 128.00,448.00L 32.00,352.00L 288.00,96.00L 64.001,96.00L 160.001,0.00 z" />
<glyph unicode="&#x006c;" d="M 480.00,192.00L 480.00,320.00L 320.00,160.00L 320.00,480.00L 192.00,480.00L 192.001,159.999L 32.00,320.00L 32.00,191.999L 256.001-32.00 z" />
<glyph unicode="&#x006d;" d="M 32.00,0.00L 352.00,0.00L 448.00,96.00L 224.00,96.00L 480.00,352.00L 384.00,448.00L 128.00,192.00L 128.00,416.00L 32.00,320.00 z" />
<glyph unicode="&#x006e;" d="M 224.00,0.00L 352.00,0.00L 192.00,160.00L 512.00,160.00L 512.00,288.00L 192.00,288.00L 352.00,448.00L 224.00,448.00L0.00,224.00 z" />
<glyph unicode="&#x006f;" d="M 256.00,480.00L 32.00-32.00L 256.00,64.00L 480.00-32.00 z" />
<glyph unicode="&#x0070;" d="M 512.00,224.00L0.00,448.00L 96.00,224.00L0.00,0.00 z" />
<glyph unicode="&#x0071;" d="M 256.00-32.00L 480.00,480.00L 256.00,384.00L 32.00,480.00 z" />
<glyph unicode="&#x0072;" d="M0.00,224.00L 512.00,0.00L 416.00,224.00L 512.00,448.00 z" />
<glyph unicode="&#x0073;" d="M 320.00,448.00L 384.00,384.00L 160.00,160.00L 192.00,128.00L 416.00,352.00L 480.00,288.00L 480.00,448.00 	zM 352.00,64.00L 96.00,64.00L 96.00,320.00L 224.00,320.00L 288.00,384.00L 32.00,384.00L 32.00,0.00L 416.00,0.00L 416.00,256.00L 352.00,192.00 	z" />
<glyph unicode="&#x0074;" d="M 432.00,128.00c-22.58,0.00-42.96-9.369-57.506-24.415L 158.992,211.336C 159.649,215.462, 160.00,219.689, 160.00,224.00
	s-0.351,8.538-1.008,12.663l 215.502,107.751C 389.04,329.369, 409.42,320.00, 432.00,320.00c 44.183,0.00, 80.00,35.817, 80.00,80.00S 476.183,480.00, 432.00,480.00
	s-80.00-35.817-80.00-80.00c0.00-4.311, 0.352-8.538, 1.008-12.663L 137.506,279.585C 122.96,294.63, 102.58,304.00, 80.00,304.00c-44.183,0.00-80.00-35.818-80.00-80.00
	c0.00-44.184, 35.817-80.00, 80.00-80.00c 22.58,0.00, 42.96,9.369, 57.506,24.414l 215.502-107.751C 352.352,56.538, 352.00,52.311, 352.00,48.00
	c0.00-44.184, 35.817-80.00, 80.00-80.00s 80.00,35.816, 80.00,80.00C 512.00,92.182, 476.183,128.00, 432.00,128.00z" />
<glyph unicode="&#x0075;" d="M 309.159,382.463l 78.766,0.00 L 387.925,480.00 l-78.766,0.00 C 244.006,480.00, 191.00,422.579, 191.00,352.00l0.00-49.229 l-78.768,0.00 l0.00-97.847 L 191.00,204.924 L 191.00-32.00 l 98.468,0.00 L 289.468,204.924 l 98.457,0.00 
	l0.00,97.847 l-98.457,0.00 l0.00,50.154 C 289.468,369.829, 299.865,382.463, 309.159,382.463z" />
<glyph unicode="&#x0076;" d="M 426.672,480.00L 85.342,480.00 C 38.406,480.00,0.00,441.593,0.00,394.656l0.00-341.313 C0.00,6.374, 38.406-32.00, 85.342-32.00l 170.654,0.00 L 255.996,160.50 l-64.00,0.00 L 191.996,240.00 l 64.00,0.00 l0.00,40.00 
	c0.00,57.344, 43.063,104.001, 96.004,104.001l 64.00,0.00 l0.00-79.25 l-64.00,0.00 c-7.551,0.00-16.00-10.266-16.00-24.00L 336.00,240.00 l 80.00,0.00 l0.00-79.50 l-80.00,0.00 l0.00-192.499 l 90.672,0.00 
	c 46.937,0.00, 85.328,38.373, 85.328,85.344L 512.00,394.656 C 512.00,441.593, 473.609,480.00, 426.672,480.00z" />
<glyph unicode="&#x0077;" d="M 412.149,95.625L 271.362,95.625 c-41.494,0.00-80.083,43.219-80.083,92.439l0.00,35.713 l 219.24,0.00 c 35.479,0.00, 64.232,28.671, 64.232,64.038
	c0.00,35.382-28.756,64.061-64.232,64.061l-219.24,0.00 L 191.279,415.14 c0.00,35.81-26.826,64.86-62.312,64.86C 93.512,480.00, 64.756,450.95, 64.756,415.14
	l0.00-227.078 C 64.756,66.447, 156.189-32.00, 269.225-32.00l 140.77,0.00 c 35.479,0.00, 64.758,28.553, 64.758,64.361
	C 474.75,68.197, 447.625,95.625, 412.149,95.625z" />
<glyph unicode="&#x0078;" d="M 426.671,480.00L 85.343,480.00 C 38.406,480.00,0.00,441.595,0.00,394.655l0.00-341.311 C0.00,6.375, 38.406-32.00, 85.343-32.00l 341.328,0.00 
	C 473.609-32.00, 512.00,6.375, 512.00,53.345L 512.00,394.655 C 512.00,441.595, 473.609,480.00, 426.671,480.00z M 257.00,144.00l 87.903,0.00 
	c 22.155,0.00, 39.094-17.124, 39.094-39.499c0.00-22.36-18.279-40.188-40.438-40.188l-87.89,0.00 c-70.577,0.00-127.67,61.47-127.67,137.403L 127.999,343.501 
	c0.00,22.359, 17.952,40.50, 40.094,40.50c 22.156,0.00, 38.907-18.141, 38.907-40.50L 207.00,304.00 L 343.89,304.00 c 22.156,0.00, 40.107-17.907, 40.107-39.999
	c0.00-22.079-17.951-39.985-40.107-39.985L 207.001,224.016 l0.00-22.297 C 207.001,170.982, 231.094,144.00, 257.00,144.00z" />
<glyph unicode="&#x0079;" d="M 206.115,224.043c-23.854,12.259-47.043,18.479-68.94,18.479c-2.978,0.00-5.976-0.09-8.974-0.354
		c-27.94-2.312-53.461-9.684-69.875-15.414c-4.354-1.599-8.817-3.288-13.415-5.153L0.00,65.904
		c 30.851,11.416, 58.146,16.969, 83.135,16.969c 40.423,0.00, 69.764-15.104, 93.996-30.652c 11.481,38.959, 39.022,133.045, 47.241,161.162
		C 218.397,217.025, 212.334,220.668, 206.115,224.043zM 264.174,184.465l-45.223-157.074c 13.416-7.686, 58.549-32.025, 93.106-32.025c 27.896,0.00, 59.126,7.148, 95.417,21.896
		l 43.178,150.988c-29.316-9.461-57.438-14.26-83.732-14.26C 318.945,153.99, 285.363,169.539, 264.174,184.465zM 146.411,295.605c 38.559-0.399, 67.076-15.104, 90.708-30.251l 46.376,158.672c-9.773,5.598-35.403,19.547-53.929,24.30
		c-12.193,2.842-25.01,4.308-38.602,4.308c-25.898-0.488-54.194-6.973-86.444-19.90l-44.22-155.298
		c 32.404,12.218, 60.322,18.17, 86.043,18.17C 146.366,295.605, 146.411,295.605, 146.411,295.605zM 512.00,380.938c-29.407-11.416-58.104-17.233-85.514-17.233c-45.843,0.00-79.646,15.901-101.547,31.183L 278.964,235.77
		c 30.873-19.854, 64.145-29.939, 99.061-29.939c 28.474,0.00, 57.97,6.84, 87.731,20.344l-0.091,1.111l 1.867,0.443L 512.00,380.938z" />
<glyph unicode="&#x007a;" d="M 426.69,480.00L 85.344,480.00 C 38.405,480.00, 0.001,441.593, 0.001,394.657l0.00-341.313 C 0.001,6.375, 38.405-32.00, 85.344-32.00L 426.69-32.00 
	C 473.625-32.00, 512.00,6.375, 512.00,53.344L 512.00,394.658 C 511.996,441.593, 473.621,480.00, 426.69,480.00z M 365.858,67.656
	c-15.076-7.094-28.764-12.094-41.00-14.969c-12.248-2.845-25.48-4.279-39.701-4.279c-16.156,0.00-25.688,2.029-38.094,6.094
	c-12.404,4.094-23.00,9.936-31.75,17.436c-8.779,7.564-14.843,15.599-18.233,24.097c-3.392,8.502-5.078,20.846-5.078,37.002L 192.002,256.938 
	l-47.998,0.00 l0.00,50.033 c 13.872,4.50, 29.968,10.967, 39.842,19.375c 9.92,8.436, 17.859,18.529, 23.842,30.342
	c 6.002,11.783, 10.125,26.813, 12.376,45.033l 50.25,0.00 L 270.314,320.00 L 352.00,320.00 l0.00-63.063 l-81.689,0.00 l0.00-90.594 c0.00-20.50-0.264-32.313, 1.908-38.125
	c 2.156-5.78, 7.563-11.78, 13.451-15.25c 7.828-4.688, 16.752-7.03, 26.813-7.03c 17.893,0.00, 35.689,5.813, 53.375,17.438L 365.858,67.656 
	L 365.858,67.656z" />
<glyph unicode="&#x007b;" d="M 416.751-4.105c-21.85-10.277-41.685-17.525-59.414-21.689c-17.75-4.121-36.931-6.203-57.533-6.203
	c-23.413,0.00-37.227,2.943-55.204,8.828c-17.979,5.934-33.33,14.402-46.01,25.27c-12.725,10.961-21.511,22.604-26.424,34.916
	c-4.913,12.318-7.358,30.207-7.358,53.621L 164.808,270.189 L 95.249,270.189 l0.00,72.503 c 20.104,6.521, 43.428,15.894, 57.736,28.076
	c 14.377,12.225, 25.883,26.853, 34.553,43.972c 8.696,17.073, 14.674,38.856, 17.936,65.258l 72.818,0.00 l0.00-118.423 L 396.67,361.575 l0.00-91.387 L 278.29,270.188 l0.00-131.28 
	c0.00-29.709-0.385-46.828, 2.765-55.25c 3.125-8.377, 10.959-17.072, 19.495-22.10c 11.343-6.795, 24.271-10.189, 38.854-10.189
	c 25.927,0.00, 51.716,8.424, 77.348,25.27L 416.752-4.105 L 416.751-4.105z" />
<glyph unicode="&#x007c;" d="M 449.735,374.562l-75.173,87.703C 365.751,472.542, 349.533,480.00, 336.00,480.00L 80.00,480.00 C 62.355,480.00, 48.00,465.645, 48.00,448.00l0.00-448.00 c0.00-17.645, 14.354-32.00, 32.00-32.00
		l 352.00,0.00 c 17.645,0.00, 32.00,14.355, 32.00,32.00L 464.00,336.00 C 464.00,348.702, 458.00,364.92, 449.735,374.562z M 352.00,459.633c 4.142-2.112, 7.88-4.826, 10.412-7.781
		l 75.175-87.704c 2.649-3.092, 5.069-7.469, 6.913-12.148L 352.00,352.00 L 352.00,459.633 z M 448.00,0.00c0.00-8.80-7.20-16.00-16.00-16.00L 80.00-16.00 c-8.80,0.00-16.00,7.20-16.00,16.00L 64.00,448.00 
		c0.00,8.80, 7.20,16.00, 16.00,16.00l 256.00,0.00 l0.00-128.00 l 112.00,0.00 L 448.00,0.00 zM 319.889,242.054L 341.995,242.054L 316.489,128.965L 283.326,287.97L 230.051,287.97L 191.494,128.965L 162.586,287.97L 106.889,287.97L 163.435,32.029L 217.854,32.029L 256.001,183.383L 290.129,32.029L 340.297,32.029L 405.112,287.97L 319.889,287.97 	
		z" />
<glyph unicode="&#x007d;" d="M 256.00,480.00C 114.624,480.00,0.00,365.376,0.00,224.00s 114.624-256.00, 256.00-256.00s 256.00,114.624, 256.00,256.00S 397.376,480.00, 256.00,480.00z M 382.624,142.624
		l-45.248-45.248L 256.00,178.752l-81.376-81.376l-45.248,45.248L 210.752,224.00l-81.376,81.376l 45.248,45.248L 256.00,269.248l 81.376,81.376l 45.248-45.248
		L 301.248,224.00L 382.624,142.624z" />
<glyph unicode="&#xe000;" d="M 224.00,480.00C 100.32,480.00,0.00,379.68,0.00,256.00c0.00-61.312, 24.752-116.752, 64.688-157.248L 65.056-32.00l 106.192,70.944
	C 188.256,34.752, 205.744,32.00, 224.00,32.00c 123.68,0.00, 224.00,100.32, 224.00,224.00C 448.00,379.68, 347.68,480.00, 224.00,480.00z M 224.00,96.00c-11.312,0.00-23.568,1.68-37.44,5.056l-27.248,6.752
	l-30.688-20.32l 0.192,37.376l-18.56,18.816C 80.432,173.936, 64.00,213.808, 64.00,256.00C 64.00,344.256, 135.744,416.00, 224.00,416.00c 88.256,0.00, 160.00-71.744, 160.00-160.00
	C 384.00,167.744, 312.256,96.00, 224.00,96.00z" horiz-adv-x="448" />
<glyph unicode="&#xe001;" d="M 256.00,480.00C 114.624,480.00,0.00,365.376,0.00,224.00s 114.624-256.00, 256.00-256.00s 256.00,114.624, 256.00,256.00S 397.376,480.00, 256.00,480.00z M 216.32,105.872
		L 98.528,223.68l 45.248,45.248l 72.528-72.56l 153.872,153.872l 45.248-45.248L 216.32,105.872z" />
<glyph unicode="&#xe002;" d="M 447.632,352.00l-63.184,0.00 L 448.00,415.744L 385.184,480.00l-89.056,0.00 l 63.808-63.744L 294.56,352.00l-75.568,0.00 l 64.944,63.744L 219.744,480.00L 129.248,480.00 
		l 63.744-63.744L 127.632,352.00L 63.504,352.00 l 64.992,63.744L 64.256,480.00L0.00,480.00 l0.00-512.00 l 512.00,0.00 L 512.00,480.00 l-62.752,0.00 L 512.00,416.00L 447.632,352.00z M 448.00,32.00L 64.00,32.00 l0.00,64.00 l 384.00,0.00 L 448.00,32.00 z M 448.00,160.00L 64.00,160.00 l0.00,64.00 l 384.00,0.00 L 448.00,160.00 z" />
<glyph unicode="&#xe003;" d="M 384.00,192.00c0.00-70.56-57.376-128.00-128.00-128.00s-128.00,57.44-128.00,128.00s 57.376,128.00, 128.00,128.00l 37.744-0.432l-18.624-18.624l 45.248-45.248L 416.56,352.00
			l-96.192,96.00l-45.248-45.248L 294.00,384.00L 256.00,384.00 C 150.00,384.00, 64.00,298.064, 64.00,192.00s 86.00-192.00, 192.00-192.00s 192.00,85.936, 192.00,192.00L 384.00,192.00 z" />
<glyph unicode="&#xe004;" d="M 382.128,382.624l-45.12-45.312C 367.248,307.056, 384.00,266.816, 384.00,224.00c0.00-88.256-71.744-160.00-160.00-160.00l0.00,32.00 l-64.00-64.00l 64.00-64.00l0.00,32.00 
			c 123.504,0.00, 224.00,100.496, 224.00,224.00C 448.00,283.936, 424.624,340.256, 382.128,382.624zM 288.00,416.00l-64.00,64.00l0.00-32.00 C 100.496,448.00,0.00,347.504,0.00,224.00c0.00-59.936, 23.376-116.256, 65.872-158.624l 45.12,45.312
			C 80.752,140.944, 64.00,181.184, 64.00,224.00C 64.00,312.256, 135.744,384.00, 224.00,384.00l0.00-32.00 L 288.00,416.00z" horiz-adv-x="448" />
<glyph unicode="&#xe005;" d="M 511.968,96.00L 127.872,96.00L 127.872,32.00L0.00,128.00L 127.872,224.00L 127.872,160.00L 511.968,160.00 		zM0.00,288.00L 383.968,288.00L 383.968,224.00L 511.968,320.00L 383.968,416.00L 383.968,352.00L0.00,352.00 		z" horiz-adv-x="511.9679870605469" />
<glyph unicode="&#xe006;" d="M0.00,480.00L 384.00,224.00L0.00-32.00 	z" horiz-adv-x="384" />
<glyph unicode="&#xe007;" d="M0.00,480.00L 128.00,480.00L 128.00-32.00L0.00-32.00zM 256.00,480.00L 384.00,480.00L 384.00-32.00L 256.00-32.00z" horiz-adv-x="384" />
<glyph unicode="&#xe008;" d="M0.00,480.00L 512.00,480.00L 512.00-32.00L0.00-32.00z" />
<glyph unicode="&#xe009;" d="M0.00,160.00L 256.00,480.00L 512.00,160.00 		zM0.00,96.00L 511.312,96.00L 511.312-32.00L0.00-32.00z" />
<glyph unicode="&#xe00a;" d="M 512.00-32.00L 128.00,224.00L 512.00,480.00 		zM0.00,416.00L 128.00,416.00L 128.00,32.00L0.00,32.00z" />
<glyph unicode="&#xe00b;" d="M0.00,480.00L 384.00,224.00L0.00-32.00 		zM 384.00,416.00L 512.00,416.00L 512.00,32.00L 384.00,32.00z" />
<glyph unicode="&#xe00c;" d="M 1024.00,352.00l-128.00,0.00 L 896.00,416.00 c0.00,35.136-28.736,64.00-64.00,64.00L 64.00,480.00 C 28.736,480.00,0.00,451.136,0.00,416.00l0.00-384.00 c0.00-35.136, 28.736-64.00, 64.00-64.00l 768.00,0.00 
		c 35.264,0.00, 64.00,28.864, 64.00,64.00l0.00,64.00 l 128.00,0.00 L 1024.00,352.00 z M 768.00,96.00L 128.00,96.00 L 128.00,352.00 l 640.00,0.00 L 768.00,96.00 z" horiz-adv-x="1024" />
<glyph unicode="&#xe00d;" d="M 512.00,288.00l-64.00,0.00 l0.00,32.00 c0.00,17.60-14.368,32.00-32.00,32.00L 32.00,352.00 c-17.632,0.00-32.00-14.40-32.00-32.00l0.00-192.00 c0.00-17.632, 14.368-32.00, 32.00-32.00l 384.00,0.00 c 17.632,0.00, 32.00,14.368, 32.00,32.00l0.00,32.00 l 64.00,0.00 
		L 512.00,288.00 z M 384.00,160.00l-128.00,0.00 l0.00,128.00 l 128.00,0.00 L 384.00,160.00 z" />
<glyph unicode="&#xe00e;" d="M 448.00,288.00l0.00,32.00 c0.00,17.60-14.40,32.00-32.00,32.00L 32.00,352.00 c-17.60,0.00-32.00-14.40-32.00-32.00l0.00-192.00 c0.00-17.60, 14.40-32.00, 32.00-32.00l 384.00,0.00 c 17.60,0.00, 32.00,14.40, 32.00,32.00l0.00,32.00 l 64.00,0.00 l0.00,128.00 L 448.00,288.00 z" />
<glyph unicode="&#xe00f;" d="M 512.00,32.00L 512.00,224.00 l-128.00,0.00 c0.00,70.56, 57.376,128.00, 128.00,128.00L 512.00,416.00 c-105.872,0.00-192.00-86.128-192.00-192.00l0.00-192.00 L 512.00,32.00 zM 192.00,32.00L 192.00,224.00 L 64.00,224.00 c0.00,70.56, 57.376,128.00, 128.00,128.00L 192.00,416.00 C 86.128,416.00,0.00,329.872,0.00,224.00l0.00-192.00 L 192.00,32.00 z" />
<glyph unicode="&#xe010;" d="M0.00,416.00l0.00-192.00 l 128.00,0.00 c0.00-70.56-57.376-128.00-128.00-128.00l0.00-64.00 c 105.872,0.00, 192.00,86.128, 192.00,192.00L 192.00,416.00 L0.00,416.00 zM 320.00,416.00l0.00-192.00 l 128.00,0.00 c0.00-70.56-57.376-128.00-128.00-128.00l0.00-64.00 c 105.872,0.00, 192.00,86.128, 192.00,192.00L 512.00,416.00 L 320.00,416.00 z" />
<glyph unicode="&#xe011;" d="M0.00,443.431A36.569,36.569 1260.00 1,0 73.138,443.431A36.569,36.569 1260.00 1,0 0.00,443.431zM0.00,297.136A36.569,36.569 1260.00 1,0 73.138,297.13599999999997A36.569,36.569 1260.00 1,0 0.00,297.13599999999997zM0.00,150.859A36.569,36.569 1260.00 1,0 73.138,150.85899999999998A36.569,36.569 1260.00 1,0 0.00,150.85899999999998zM0.00,4.565A36.569,36.569 1260.00 1,0 73.138,4.564999999999998A36.569,36.569 1260.00 1,0 0.00,4.564999999999998zM 146.295,480.00L 585.106,480.00L 585.106,406.862L 146.295,406.862zM 146.295,333.705L 585.106,333.705L 585.106,260.567L 146.295,260.567zM 146.295,187.429L 585.106,187.429L 585.106,114.29L 146.295,114.29zM 146.295,41.134L 585.106,41.134L 585.106-32.005L 146.295-32.005z" horiz-adv-x="585.1062622070312" />
<glyph unicode="&#xe012;" d="M 512.00,416.00L0.00,416.00L0.00,480.00L 512.00,480.00 		zM 320.00,288.00L0.00,288.00L0.00,352.00L 320.00,352.00 		zM 512.00,160.00L0.00,160.00L0.00,224.00L 512.00,224.00 		zM0.00,0.00A32.00,32.00 1260.00 1,0 64.00,0A32.00,32.00 1260.00 1,0 0.00,0zM 256.00,0.00A32.00,32.00 1260.00 1,0 320.00,0A32.00,32.00 1260.00 1,0 256.00,0zM 128.00,0.00A32.00,32.00 1260.00 1,0 192.00,0A32.00,32.00 1260.00 1,0 128.00,0z" />
<glyph unicode="&#xe013;" d="M 383.968,384.00c-6.00,0.00-11.728-0.976-17.648-1.776C 344.096,421.664, 302.816,448.00, 256.00,448.00c-47.792,0.00-89.04-26.656-111.04-65.60
			C 139.312,383.152, 133.68,384.00, 128.00,384.00c-70.56,0.00-128.00-57.408-128.00-128.00s 57.44-128.00, 128.00-128.00l 255.968,0.00 c 70.624,0.00, 128.00,57.408, 128.00,128.00S 454.592,384.00, 383.968,384.00z M 383.968,192.00L 128.00,192.00 
			c-35.312,0.00-64.00,28.72-64.00,64.00c0.00,35.088, 31.056,62.16, 64.064,63.12c 0.144-15.088, 2.752-29.904, 8.00-43.904l 59.936,22.432
			C 193.312,304.752, 192.00,312.288, 192.00,320.00c0.00,35.28, 28.688,64.00, 64.00,64.00c 20.688,0.00, 39.44-10.256, 51.184-26.224C 276.336,334.40, 256.00,297.68, 256.00,256.00l 64.00,0.00 
			c0.00,35.28, 28.72,64.00, 63.968,64.00c 35.376,0.00, 64.00-28.72, 64.00-64.00S 419.344,192.00, 383.968,192.00zM 52.496,8.992c-12.00-12.00-31.504-12.00-43.504,0.00s-12.00,31.504,0.00,43.504S 96.00,96.00, 96.00,96.00S 64.496,20.992, 52.496,8.992zM 180.56,8.992c-12.00-12.00-31.44-12.00-43.504,0.00c-12.00,12.00-12.00,31.504,0.00,43.504
			C 149.12,64.496, 224.064,96.00, 224.064,96.00S 192.624,20.992, 180.56,8.992zM 308.48,8.992c-12.00-12.00-31.504-12.00-43.504,0.00s-12.00,31.504,0.00,43.504S 351.968,96.00, 351.968,96.00
			S 320.48,20.992, 308.48,8.992z" horiz-adv-x="511.9679870605469" />
<glyph unicode="&#xe014;" d="M 256.00,480.00C 114.88,480.00,0.00,365.152,0.00,224.00l 64.00,0.00 c0.00,13.216, 10.816,24.00, 24.00,24.00C 101.248,248.00, 112.00,237.216, 112.00,224.00l 64.00,0.00 
		c0.00,13.216, 10.816,24.00, 24.00,24.00c 13.248,0.00, 24.00-10.784, 24.00-24.00l0.00-160.00 c0.00-17.632-14.32-32.00-32.00-32.00c-17.632,0.00-32.00,14.368-32.00,32.00L 96.00,64.00 c0.00-52.944, 43.12-96.00, 96.00-96.00
		c 52.992,0.00, 96.00,43.056, 96.00,96.00L 288.00,224.00 c0.00,13.216, 10.816,24.00, 24.00,24.00c 13.248,0.00, 23.968-10.784, 23.968-24.00l 64.00,0.00 c0.00,13.216, 10.88,24.00, 24.00,24.00
		c 13.248,0.00, 24.00-10.784, 24.00-24.00l 64.00,0.00 C 511.968,365.152, 397.216,480.00, 256.00,480.00z" horiz-adv-x="511.9679870605469" />
<glyph unicode="&#xe015;" d="M 394.128,125.056c-131.008,0.00-237.12,106.192-237.12,237.12c0.00,43.12, 12.368,83.008, 32.496,117.808
			C 80.32,448.496,0.00,348.992,0.00,229.68C0.00,85.184, 117.12-32.00, 261.632-32.00c 119.312,0.00, 218.88,80.368, 250.368,189.504
			C 477.12,137.44, 437.248,125.056, 394.128,125.056z" />
<glyph unicode="&#xe016;" d="M 128.00,480.00C 57.312,480.00,0.00,422.688,0.00,352.00s 128.00-384.00, 128.00-384.00s 128.00,313.312, 128.00,384.00S 198.688,480.00, 128.00,480.00z M 128.00,288.00c-35.344,0.00-64.00,28.656-64.00,64.00
		s 28.656,64.00, 64.00,64.00s 64.00-28.656, 64.00-64.00S 163.344,288.00, 128.00,288.00z" horiz-adv-x="256" />
<glyph unicode="&#xe017;" d="M 354.192,166.00L 512.00,288.00L 320.00,288.00L 256.00,480.00L 192.00,288.00L0.00,288.00L 158.00,166.496L 96.00-32.00L 256.256,90.88L 416.128-32.00 		
			z" />
<glyph unicode="&#xe018;" d="M 384.00,480.00L 512.00,480.00L 512.00-32.00L 384.00-32.00zM 192.00,352.00L 320.00,352.00L 320.00-32.00L 192.00-32.00zM0.00,224.00L 128.00,224.00L 128.00-32.00L0.00-32.00z" />
<glyph unicode="&#xe019;" d="M 256.24,275.168c-42.42,0.00-76.80-34.396-76.80-76.80c0.00-42.42, 34.38-76.80, 76.80-76.80c 42.408,0.00, 76.80,34.38, 76.80,76.80
		C 333.041,240.772, 298.649,275.168, 256.24,275.168z M 461.041,351.968l-61.44,0.00 c-8.452,0.00-17.551,6.556-20.22,14.567l-15.88,47.66
		c-2.68,8.016-11.772,14.572-20.22,14.572l-174.08,0.00 c-8.452,0.00-17.551-6.556-20.22-14.572l-15.88-47.66
		c-2.68-8.012-11.772-14.567-20.22-14.567l-61.44,0.00 c-28.16,0.00-51.20-23.04-51.20-51.20l0.00-230.40 c0.00-28.16, 23.04-51.20, 51.20-51.20l 409.60,0.00 c 28.16,0.00, 51.20,23.04, 51.20,51.20l0.00,230.40 
		C 512.241,328.928, 489.201,351.968, 461.041,351.968z M 256.24,70.368c-70.692,0.00-128.00,57.308-128.00,128.00c0.00,70.688, 57.308,128.00, 128.00,128.00
		c 70.68,0.00, 128.00-57.312, 128.00-128.00C 384.241,127.675, 326.92,70.368, 256.24,70.368z M 443.121,264.964c-9.896,0.00-17.92,8.016-17.92,17.92
		c0.00,9.892, 8.024,17.92, 17.92,17.92c 9.90,0.00, 17.92-8.028, 17.92-17.92C 461.041,272.98, 453.02,264.964, 443.121,264.964z" />
<glyph unicode="&#xe01a;" d="M 201.443,103.284l-20.724-20.58c-17.968-17.807-47.184-17.82-65.141,0.00c-8.632,8.565-13.377,19.94-13.377,32.036
		c0.00,12.092, 4.744,23.476, 13.372,32.04l 76.288,75.688c 15.809,15.681, 45.557,38.764, 67.232,17.268
		c 9.948-9.881, 26.012-9.816, 35.888,0.128c 9.881,9.944, 9.82,26.016-0.128,35.884c-36.853,36.568-91.312,29.809-138.744-17.252
		L 79.82,182.799c-18.308-18.172-28.38-42.339-28.38-68.06s 10.072-49.884, 28.384-68.056
		c 18.836-18.692, 43.568-28.028, 68.316-28.028S 197.632,27.992, 216.48,46.695l 20.74,20.584c 9.944,9.867, 9.999,25.94, 0.12,35.884
		C 227.472,113.104, 211.393,113.16, 201.443,103.284z M 432.644,397.308c-39.581,39.272-94.917,41.404-131.555,5.052l-25.832-25.648
		c-9.952-9.871-10.012-25.936-0.132-35.884s 25.948-10.004, 35.895-0.128L 336.844,366.336c 18.98,18.844, 43.828,11.028, 60.04-5.052
		c 8.641-8.565, 13.388-19.948, 13.388-32.044c0.00-12.092-4.747-23.476-13.377-32.04L 315.501,216.456
		C 278.284,179.528, 260.824,196.864, 253.377,204.256c-9.952,9.871-26.012,9.808-35.892-0.132
		c-9.881-9.944-9.82-26.012, 0.132-35.884c 17.083-16.961, 36.588-25.368, 57.028-25.368c 25.029,0.00, 51.467,12.612, 76.613,37.569
		l 81.392,80.739c 18.304,18.176, 28.392,42.344, 28.392,68.064C 461.041,354.96, 450.952,379.128, 432.644,397.308z" />
<glyph unicode="&#xe01b;" d="M 179.452,249.568l-153.60,0.00 c-14.145,0.00-25.60-11.46-25.60-25.60s 11.457-25.60, 25.60-25.60l 153.60,0.00 c 14.136,0.00, 25.60,11.46, 25.60,25.60
		S 193.588,249.568, 179.452,249.568z M 179.452,147.168l-153.60,0.00 c-14.145,0.00-25.60-11.46-25.60-25.60s 11.457-25.60, 25.60-25.60l 153.60,0.00 c 14.136,0.00, 25.60,11.46, 25.60,25.60
		S 193.588,147.168, 179.452,147.168z M 496.892,249.568l-87.04,0.00 l0.00,87.04 c0.00,14.14-11.464,15.36-25.60,15.36c-14.145,0.00-25.60-1.221-25.60-15.36l0.00-87.04 l-84.48,0.00 
		c-14.145,0.00-15.36-11.46-15.36-25.60s 1.217-25.60, 15.36-25.60l 84.48,0.00 l0.00-87.04 c0.00-14.14, 11.457-15.36, 25.60-15.36c 14.136,0.00, 25.60,1.221, 25.60,15.36l0.00,87.04 l 87.04,0.00 
		c 14.136,0.00, 15.36,11.46, 15.36,25.60S 511.028,249.568, 496.892,249.568z M 179.452,351.968l-153.60,0.00 c-14.145,0.00-25.60-11.46-25.60-25.60s 11.457-25.60, 25.60-25.60l 153.60,0.00 
		c 14.136,0.00, 25.60,11.46, 25.60,25.60S 193.588,351.968, 179.452,351.968z" />
<glyph unicode="&#xe01c;" d="M 360.935,422.78c-29.192,21.057-65.851,31.588-109.971,31.588c-33.58,0.00-61.90-7.42-84.933-22.22
		c-36.512-23.20-55.932-62.581-58.272-118.133l 84.632,0.00 c0.00,16.172, 4.728,31.759, 14.168,46.78
		c 9.444,15.012, 25.468,22.513, 48.068,22.513c 22.981,0.00, 38.813-6.096, 47.468-18.272c 8.668-12.188, 13.004-25.688, 13.004-40.50
		c0.00-12.865-6.46-24.66-14.24-35.38c-4.279-6.244-9.924-11.988-16.932-17.248c0.00,0.00-45.904-29.44-66.048-53.088
		c-11.696-13.724-12.74-34.264-13.776-63.736c-0.072-2.096, 0.728-6.428, 8.072-6.428s 59.296,0.00, 65.828,0.00
		s 7.896,4.872, 7.98,6.977c 0.46,10.741, 1.672,16.216, 3.62,22.412c 3.704,11.704, 13.764,21.928, 25.056,30.705l 23.30,16.08
		c 21.028,16.38, 37.804,29.828, 45.208,40.36c 12.661,17.339, 21.552,38.688, 21.552,64.029
		C 404.721,370.536, 390.119,401.727, 360.935,422.78z M 249.604,97.928c-29.172,0.868-53.24-19.313-54.155-50.952
		c-0.907-31.628, 21.98-52.52, 51.152-53.38c 30.46-0.904, 53.872,18.619, 54.788,50.252
		C 302.30,75.488, 280.064,97.028, 249.604,97.928z" />
<glyph unicode="&#xe01d;" d="M 438.631,309.175L 386.268,453.439c-3.868,10.649-15.212,16.288-25.32,12.60L 12.856,339.007
		C 2.74,335.32-2.332,323.687, 1.536,313.04l 55.212-152.112L 56.748,242.468 c0.00,36.78, 29.412,66.707, 65.555,66.707l 91.976,0.00 L 323.98,386.176
		l 63.48-77.00L 438.631,309.176 z M 492.737,263.00l-370.432,0.00 c-10.763,0.00-19.496-9.196-19.496-20.532l0.00-241.177 
		c0.00-11.332, 8.732-20.524, 19.496-20.524l 370.432,0.00 c 10.772,0.00, 19.504,9.191, 19.504,20.524L 512.241,242.468 
		C 512.241,253.805, 503.508,263.00, 492.737,263.00z M 464.468,32.084L 157.404,32.084 L 157.404,76.068 l 47.24,109.956l 70.864-87.972
		l 66.48,68.148l 85.475,30.844l 37.003-82.484L 464.468,32.084 z" />
<glyph unicode="&#xe01e;" d="M 478.544,200.908L 397.952,392.708c-6.384,12.789-23.284,23.26-37.559,23.26L 307.441,415.968 l 10.24-104.053l 69.12,0.00 l-130.56-108.269
		l-130.56,108.269l 69.12,0.00 l 10.24,104.053l-52.956,0.00 c-14.276,0.00-31.176-10.471-37.559-23.26L 33.936,200.908c-6.389-12.80-9.688-34.82-7.344-48.932
		l 17.416-94.347c 2.352-14.112, 15.944-25.659, 30.22-25.659l 364.02,0.00 c 14.276,0.00, 27.872,11.548, 30.22,25.659l 17.416,94.347
		C 488.228,166.088, 484.929,188.108, 478.544,200.908z M 443.66,131.068l-6.631-36.919c-1.985-14.172-15.284-25.76-29.556-25.76
		L 105.004,68.388 c-14.268,0.00-27.572,11.588-29.556,25.76l-6.628,36.919c-1.979,14.168, 8.075,25.76, 22.348,25.76l 330.14,0.00 
		C 435.584,156.828, 445.64,145.236, 443.66,131.068z" />
<glyph unicode="&#xe01f;" d="M 488.429,300.768L 24.049,300.768 c-23.567,0.00-24.744-11.476-23.464-25.496l 21.128-230.608c 1.28-14.02, 4.60-25.496, 28.136-25.496
		L 462.628,19.168 c 24.001,0.00, 26.856,11.476, 28.136,25.496l 21.132,230.608C 513.177,289.292, 512.00,300.768, 488.429,300.768z M 471.388,357.088
		c-2.84,11.264-16.768,20.48-30.961,20.48L 265.984,377.568 c-14.197,0.00-34.019,8.129-44.076,18.063l-15.243,15.072
		c-10.049,9.936-29.88,18.063-44.072,18.063L 79.243,428.768 c-14.188,0.00-27.08-11.448-28.644-25.444L 43.125,336.608l 433.423,0.00 
		L 471.388,357.088z" />
<glyph unicode="&#xe020;" d="M 384.241,454.368l-256.00,0.00 c-28.16,0.00-51.20-23.04-51.20-51.20l0.00-358.40 c0.00-28.16, 23.04-51.20, 51.20-51.20l 256.00,0.00 c 28.16,0.00, 51.20,23.04, 51.20,51.20l0.00,358.40 
		C 435.441,431.328, 412.401,454.368, 384.241,454.368z M 327.82,210.64c-6.084-9.472-9.312-5.424-7.479,0.00
		c 4.828,14.28, 4.627,57.512-35.644,63.856l0.00-133.449 c0.00-24.876-14.321-40.50-44.784-50.272
		c-29.60-9.492-62.728,0.368-70.469,21.632c-7.74,21.26, 9.665,47.112, 38.876,57.752
		c 16.296,5.92, 32.823,5.848, 45.60,0.936L 253.92,359.328 l 30.776,0.00 C 284.697,327.008, 371.248,278.199, 327.82,210.64z" />
<glyph unicode="&#xe021;" d="M 507.121,351.968l0.00,30.72 c0.00,11.312-9.176,20.48-20.48,20.48l-460.80,0.00 c-11.312,0.00-20.48-9.168-20.48-20.48l0.00-30.72 l 51.20,0.00 l0.00-51.20 l-51.20,0.00 l0.00-51.20 l 51.20,0.00 l0.00-51.20 l-51.20,0.00 l0.00-51.20 l 51.20,0.00 
		l0.00-51.20 l-51.20,0.00 l0.00-30.72 c0.00-11.312, 9.168-20.48, 20.48-20.48l 460.80,0.00 c 11.304,0.00, 20.48,9.168, 20.48,20.48l0.00,30.72 l-51.20,0.00 l0.00,51.20 l 51.20,0.00 l0.00,51.20 l-51.20,0.00 l0.00,51.20 l 51.20,0.00 l0.00,51.20 l-51.20,0.00 l0.00,51.20 L 507.121,351.968 
		z M 199.92,147.168l0.00,153.60 l 128.00-76.80L 199.92,147.168z" />
<glyph unicode="&#xe022;" d="M 262.456,29.408L 262.476,127.385L 442.097,127.368L 442.097,320.728L 262.456,320.728L 262.476,418.528L 68.336,223.956 	z" />
<glyph unicode="&#xe023;" d="M 449.777,231.208L 351.796,231.223L 351.816,410.848L 158.46,410.848L 158.46,231.208L 60.656,231.223L 255.232,37.088 
			z" />
<glyph unicode="&#xe024;" d="M 449.777,216.729L 351.796,216.704L 351.816,37.088L 158.464,37.088L 158.464,216.729L 60.656,216.704L 255.236,410.848 	z" />
<glyph unicode="&#xe025;" d="M 247.976,418.528L 247.955,320.544L 68.336,320.567L 68.336,127.207L 247.976,127.207L 247.955,29.408L 442.097,223.975 	z" />
<glyph unicode="&#xe026;" d="M 262.456,55.008L 262.476,152.985L 442.097,152.968L 442.097,295.128L 262.456,295.128L 262.476,392.928L 68.336,223.956 	z" />
<glyph unicode="&#xe027;" d="M 490.737,223.975c0.00,130.072-105.453,235.512-235.52,235.512c-130.08,0.00-235.52-105.44-235.52-235.512
		c0.00-130.08, 105.44-235.528, 235.52-235.528C 385.284-11.552, 490.737,93.896, 490.737,223.975z M 70.896,223.975
		c0.00,101.792, 82.52,184.312, 184.32,184.312s 184.32-82.52, 184.32-184.312c0.00-101.808-82.52-184.328-184.32-184.328
		S 70.896,122.168, 70.896,223.975z M 353.777,177.888l0.00,92.16 L 249.063,270.048 l0.00,57.60 l-97.528-103.68l 97.528-103.68l0.00,57.60 L 353.777,177.888 z" />
<glyph unicode="&#xe028;" d="M 255.203,459.488c-130.067,0.00-235.508-105.453-235.508-235.52c0.00-130.08, 105.44-235.52, 235.508-235.52
		c 130.08,0.00, 235.532,105.44, 235.532,235.52C 490.737,354.037, 385.284,459.488, 255.203,459.488z M 255.203,39.648
		c-101.789,0.00-184.308,82.52-184.308,184.32s 82.52,184.32, 184.308,184.32c 101.812,0.00, 184.332-82.52, 184.332-184.32
		S 357.017,39.648, 255.203,39.648z M 301.297,322.528l-92.16,0.00 l0.00-104.712 l-57.60,0.00 l 103.68-97.528l 103.68,97.528l-57.60,0.00 L 301.297,322.528 z" />
<glyph unicode="&#xe029;" d="M 255.224-11.552c 130.072,0.00, 235.512,105.448, 235.512,235.52c0.00,130.08-105.44,235.52-235.512,235.52
		c-130.08,0.00-235.528-105.44-235.528-235.52C 19.697,93.896, 125.144-11.552, 255.224-11.552z M 255.224,408.288
		c 101.792,0.00, 184.312-82.52, 184.312-184.32s-82.52-184.32-184.312-184.32c-101.808,0.00-184.328,82.52-184.328,184.32
		S 153.417,408.288, 255.224,408.288z M 209.136,125.408l 92.16,0.00 L 301.297,230.115 l 57.60,0.00 l-103.68,97.532l-103.68-97.532l 57.60,0.00 L 209.137,125.408 z" />
<glyph unicode="&#xe02a;" d="M 19.697,223.956c0.00-130.067, 105.448-235.508, 235.52-235.508c 130.08,0.00, 235.52,105.44, 235.52,235.508
		c0.00,130.08-105.44,235.532-235.52,235.532C 125.144,459.488, 19.697,354.037, 19.697,223.956z M 439.537,223.956
		c0.00-101.789-82.52-184.308-184.32-184.308s-184.32,82.52-184.32,184.308c0.00,101.812, 82.52,184.332, 184.32,184.332
		S 439.537,325.768, 439.537,223.956z M 156.656,270.048l0.00-92.16 l 104.708,0.00 l0.00-57.60 l 97.532,103.68l-97.532,103.68l0.00-57.60 L 156.656,270.048 z" />
<glyph unicode="&#xe02b;" d="M 460.017,449.248l-409.60,0.00 c-28.16,0.00-51.20-23.04-51.20-51.20l0.00-281.60 c0.00-28.16, 22.587-55.72, 50.205-61.239l 111.924-22.388
	c0.00,0.00-96.336-34.132-34.128-34.132l 256.00,0.00 c 62.204,0.00-34.132,34.132-34.132,34.132l 111.924,22.388
	c 27.616,5.52, 50.208,33.079, 50.208,61.239l0.00,281.60 C 511.217,426.208, 488.177,449.248, 460.017,449.248z M 460.017,119.008l-409.60,0.00 l0.00,284.16 l 409.60,0.00 
	L 460.017,119.008 z" />
<glyph unicode="&#xe02c;" d="M 460.013,428.771L 50.421,428.771 c-28.16,0.00-51.20-23.04-51.20-51.20l0.00-307.204 c0.00-28.16, 23.04-51.20, 51.20-51.20l 409.592,0.00 c 28.16,0.00, 51.20,23.04, 51.20,51.20L 511.213,377.571 
	C 511.213,405.731, 488.173,428.771, 460.013,428.771z M 116.981,380.896c 10.609,0.00, 19.20-8.36, 19.20-18.684s-8.591-18.684-19.20-18.684
	c-10.613,0.00-19.20,8.36-19.20,18.684S 106.368,380.896, 116.981,380.896z M 46.581,362.211c0.00,10.324, 8.587,18.684, 19.20,18.684
	c 10.609,0.00, 19.20-8.36, 19.20-18.684s-8.591-18.684-19.20-18.684C 55.168,343.527, 46.581,351.888, 46.581,362.211z M 460.525,70.368
	L 49.909,70.368 L 49.909,305.891 l 410.616,0.00 L 460.525,70.368 z M 460.525,346.851L 152.82,346.851 l0.00,30.72 l 307.704,0.00 L 460.525,346.851 z" />
<glyph unicode="&#xe02d;" d="M 321.777,454.368l-138.24,0.00 c-14.14,0.00-20.48-11.464-20.48-25.60l0.00-435.20 l 92.16,92.16l 92.16-92.16l0.00,435.20 C 347.377,442.904, 335.916,454.368, 321.777,454.368z" />
<glyph unicode="&#xe02e;" d="M 485.617,244.448c-4.64,0.00-20.456,0.00-25.092,0.00c-14.14,0.00-25.60-9.172-25.60-20.48c0.00-11.312, 11.46-20.48, 25.60-20.48
	c 4.636,0.00, 20.452,0.00, 25.092,0.00c 14.14,0.00, 25.60,9.168, 25.60,20.48C 511.217,235.276, 499.756,244.448, 485.617,244.448z M 255.216,364.76
	c-78.091,0.00-140.80-62.709-140.80-140.792c0.00-78.091, 62.709-140.808, 140.80-140.808c 78.084,0.00, 140.80,62.716, 140.80,140.808
	C 396.017,302.051, 333.30,364.76, 255.216,364.76z M 255.216,121.568c-56.58,0.00-102.40,45.824-102.40,102.40
	c0.00,56.568, 45.82,102.404, 102.40,102.404c 56.568,0.00, 102.40-45.835, 102.40-102.404C 357.617,167.392, 311.783,121.568, 255.216,121.568z
	 M 75.496,223.968c0.00,11.308-10.94,20.48-25.08,20.48c-4.72,0.00-20.892,0.00-25.60,0.00c-14.14,0.00-25.60-9.172-25.60-20.48c0.00-11.312, 11.46-20.48, 25.60-20.48
	c 4.708,0.00, 20.879,0.00, 25.60,0.00C 64.556,203.488, 75.496,212.656, 75.496,223.968z M 255.216,403.171c 11.308,0.00, 20.48,11.46, 20.48,25.60
	c0.00,4.684,0.00,20.908,0.00,25.60c0.00,14.14-9.172,25.60-20.48,25.60c-11.312,0.00-20.48-11.46-20.48-25.60c0.00-4.692,0.00-20.916,0.00-25.60
	C 234.736,414.632, 243.905,403.171, 255.216,403.171z M 255.216,44.768c-11.312,0.00-20.48-11.464-20.48-25.60c0.00-4.688,0.00-20.912,0.00-25.60
	c0.00-14.145, 9.168-25.60, 20.48-25.60c 11.308,0.00, 20.48,11.457, 20.48,25.60c0.00,4.688,0.00,20.912,0.00,25.60C 275.697,33.305, 266.524,44.768, 255.216,44.768z
	 M 443.776,383.56c 9.999,9.995, 11.62,24.591, 3.62,32.592s-22.593,6.368-32.581-3.62c-2.761-2.761-15.169-15.16-17.92-17.92
	c-9.999-9.999-11.62-24.588-3.62-32.581c 8.001-8.009, 22.587-6.384, 32.581,3.608
	C 428.616,368.40, 441.019,380.80, 443.776,383.56z M 84.564,82.289c-2.761-2.761-15.16-15.172-17.92-17.92
	c-9.988-9.992-11.608-24.584-3.62-32.584c 8.001-8.001, 22.593-6.368, 32.581,3.624c 2.761,2.747, 15.164,15.148, 17.92,17.908
	c 9.999,9.995, 11.62,24.588, 3.62,32.588S 94.556,92.276, 84.564,82.289z M 95.624,412.533
	c-9.999,9.995-24.588,11.62-32.588,3.62s-6.375-22.593, 3.62-32.584c 2.753-2.757, 15.16-15.169, 17.92-17.92
	c 9.999-9.995, 24.58-11.616, 32.581-3.616s 6.381,22.584-3.612,32.581C 110.785,397.371, 98.38,409.772, 95.624,412.533z
	 M 396.896,53.317c 2.761-2.761, 15.169-15.16, 17.924-17.916c 9.988-9.988, 24.58-11.616, 32.581-3.62
	c 7.996,8.001, 6.368,22.593-3.62,32.581c-2.757,2.757-15.156,15.169-17.916,17.92c-9.988,9.995-24.588,11.62-32.588,3.62
	S 386.904,63.312, 396.896,53.317z" />
<glyph unicode="&#xe02f;" d="M 256.227,459.488c-130.067,0.00-235.508-105.453-235.508-235.52c0.00-130.08, 105.44-235.52, 235.508-235.52
		c 130.08,0.00, 235.532,105.44, 235.532,235.52C 491.761,354.037, 386.308,459.488, 256.227,459.488z M 382.98,350.651l-0.06,0.055
		C 382.94,350.688, 382.961,350.672, 382.98,350.651z M 77.04,223.968c0.00,98.968, 80.227,179.20, 179.188,179.20
		c 43.032,0.00, 82.512-15.18, 113.412-40.459L 117.50,110.567C 92.219,141.455, 77.04,180.936, 77.04,223.968z M 129.50,97.284
		l 0.048-0.055C 129.528,97.248, 129.52,97.261, 129.50,97.284z M 256.227,44.768c-43.028,0.00-82.501,15.18-113.389,40.452
		l 252.141,252.148c 25.281-30.892, 40.459-70.371, 40.459-113.40C 435.441,124.997, 355.208,44.768, 256.227,44.768z" />
<glyph unicode="&#xe030;" d="M 404.721,287.968l-46.08,0.00 l0.00,35.84 c0.00,74.168-34.168,117.76-102.40,117.76c-68.235,0.00-102.40-43.593-102.40-117.76l0.00-35.84 l-51.20,0.00 c-14.14,0.00-25.60-16.581-25.60-30.72
		l0.00-199.68 c0.00-14.08, 10.964-29.14, 24.364-33.46l 30.628-9.881c 13.40-4.327, 35.888-7.86, 49.968-7.86l 148.48,0.00 
		c 14.08,0.00, 36.564,3.532, 49.964,7.86l 30.628,9.881c 13.40,4.32, 24.368,19.38, 24.368,33.46l0.00,199.68 
		C 435.441,271.389, 418.86,287.968, 404.721,287.968z M 205.04,334.048c0.00,36.988, 20.408,56.32, 51.20,56.32c 30.789,0.00, 51.20-19.332, 51.20-56.32l0.00-46.08 
		l-102.40,0.00 L 205.041,334.048 z" />
<glyph unicode="&#xe031;" d="M 404.721,275.168l-46.08,0.00 l0.00,61.44 c0.00,74.168-34.16,117.76-102.40,117.76s-102.40-43.593-102.40-117.76l0.00-10.24 l 51.20,0.00 l0.00,20.48 c0.00,36.988, 20.408,56.32, 51.20,56.32
		c 30.789,0.00, 51.20-19.332, 51.20-56.32l0.00-71.68 l-204.80,0.00 c-14.14,0.00-25.60-16.581-25.60-30.72l0.00-199.68 c0.00-14.08, 10.964-29.136, 24.364-33.46l 30.628-9.881
		c 13.40-4.327, 35.888-7.86, 49.968-7.86l 148.48,0.00 c 14.08,0.00, 36.564,3.532, 49.964,7.86l 30.628,9.881
		c 13.40,4.324, 24.368,19.38, 24.368,33.46l0.00,199.68 C 435.441,258.589, 418.86,275.168, 404.721,275.168z" />
<glyph unicode="&#xe032;" d="M 443.407,362.588C 363.963,415.428, 274.724,433.693, 168.92,403.36C 86.328,379.68, 10.639,285.759, 4.78,205.293
		C-2.14,110.212, 71.925,28.76, 202.376,28.896c 140.643,0.144, 193.296,67.68, 194.457,88.20
		c 1.152,20.52-54.864,58.485-18.824,97.48c 45.176,48.885, 85.395,7.236, 109.772,13.092
		C 512.16,233.532, 524.50,308.624, 443.407,362.588z M 280.232,124.06c-21.272,0.00-38.512,17.192-38.512,38.40s 17.24,38.40, 38.512,38.40
		s 38.508-17.192, 38.508-38.40S 301.505,124.06, 280.232,124.06z" />
<glyph unicode="&#xe033;" d="M 142.311-27.864c-33.66,0.00-65.16,14.28-87.912,37.032C 10.32,53.248-1.968,130.195, 59.831,191.996
		c 36.208,36.208, 181.248,181.244, 253.648,253.652c 25.70,25.704, 58.42,35.624, 89.739,27.236
		c 30.76-8.24, 55.972-33.44, 64.212-64.201c 8.388-31.336-1.532-64.044-27.232-89.744L 197.632,76.368
		c-13.852-13.852-29.492-22.052-45.22-23.712c-15.572-1.639-30.44,3.38-40.84,13.78
		c-18.872,18.86-21.56,54.371, 9.808,85.731l 170.38,170.384c 7.00,7.00, 18.34,7.00, 25.34,0.00
		c 7.00-6.992, 7.00-18.344,0.00-25.34L 146.72,126.823c-14.728-14.72-16.08-28.776-9.808-35.048
		c 2.747-2.753, 6.92-3.992, 11.728-3.48c 7.38,0.779, 15.78,5.552, 23.652,13.408l 242.568,242.576
		c 16.64,16.644, 23.02,36.22, 17.952,55.124c-4.992,18.619-20.239,33.868-38.86,38.86c-18.90,5.068-38.48-1.312-55.132-17.956
		C 266.42,347.90, 121.38,202.855, 85.172,166.656c-47.261-47.261-35.939-101.632-5.431-132.151
		c 30.512-30.508, 84.88-41.827, 132.151,5.431l 253.648,253.652c 7.00,7.00, 18.34,7.00, 25.34,0.00
		c 7.00-6.996, 7.00-18.344,0.00-25.34L 237.232,14.596C 207.331-15.304, 173.872-27.864, 142.311-27.864z" />
<glyph unicode="&#xe034;" d="M 512.00,224.00c0.00,141.376-114.624,256.00-256.00,256.00C 114.608,480.00,0.00,365.376,0.00,224.00c0.00-141.392, 114.608-256.00, 256.00-256.00C 397.376-32.00, 512.00,82.608, 512.00,224.00z
	 M 128.00,224.00l 128.00,128.00l0.00-96.00 l 128.00,0.00 l0.00-64.00 l-128.00,0.00 l0.00-96.00 L 128.00,224.00z" />
<glyph unicode="&#xe035;" d="M0.00,224.00c0.00-141.376, 114.624-256.00, 256.00-256.00c 141.392,0.00, 256.00,114.624, 256.00,256.00c0.00,141.392-114.608,256.00-256.00,256.00C 114.624,480.00,0.00,365.392,0.00,224.00z M 384.00,224.00
	l-128.00-128.00l0.00,96.00 L 128.00,192.00 l0.00,64.00 l 128.00,0.00 L 256.00,352.00 L 384.00,224.00z" />
<glyph unicode="&#xe036;" d="M 256.00-32.00c 141.376,0.00, 256.00,114.624, 256.00,256.00c0.00,141.392-114.624,256.00-256.00,256.00C 114.608,480.00,0.00,365.392,0.00,224.00C0.00,82.624, 114.608-32.00, 256.00-32.00z M 256.00,352.00
	l 128.00-128.00l-96.00,0.00 l0.00-128.00 l-64.00,0.00 l0.00,128.00 L 128.00,224.00 L 256.00,352.00z" />
<glyph unicode="&#xe037;" d="M 256.00,480.00C 114.624,480.00,0.00,365.376,0.00,224.00c0.00-141.392, 114.624-256.00, 256.00-256.00c 141.392,0.00, 256.00,114.608, 256.00,256.00C 512.00,365.376, 397.392,480.00, 256.00,480.00z M 256.00,96.00
	l-128.00,128.00l 96.00,0.00 L 224.00,352.00 l 64.00,0.00 l0.00-128.00 l 96.00,0.00 L 256.00,96.00z" />
<glyph unicode="&#xe038;" d="M 480.00,192.00l-32.00,0.00 l0.00,64.00 c0.00,106.00-86.00,192.00-192.00,192.00S 64.00,362.00, 64.00,256.00l0.00-64.00 L 32.00,192.00 c-17.68,0.00-32.00-14.32-32.00-32.00l0.00-128.00 c0.00-17.68, 14.32-32.00, 32.00-32.00l 96.00,0.00 L 128.00,256.00 
	c0.00,70.624, 57.376,128.00, 128.00,128.00s 128.00-57.376, 128.00-128.00l0.00-256.00 l 96.00,0.00 c 17.68,0.00, 32.00,14.32, 32.00,32.00l0.00,128.00 C 512.00,177.68, 497.68,192.00, 480.00,192.00z" />
<glyph unicode="&#xe039;" d="M0.00,224.00A112.00,112.00 4860.00 1,0 224.00,224A112.00,112.00 4860.00 1,0 0.00,224zM 288.00,224.00A112.00,112.00 4860.00 1,0 512.00,224A112.00,112.00 4860.00 1,0 288.00,224z" />
<glyph unicode="&#xe03a;" d="M 426.687,480.00L 85.344,480.00 C 38.406,480.00,0.00,441.594,0.00,394.659l0.00-341.313 C0.00,6.375, 38.406-32.00, 85.344-32.00l 341.342,0.00 
	C 473.622-32.00, 512.00,6.377, 512.00,53.348L 512.00,394.659 C 512.00,441.594, 473.622,480.00, 426.687,480.00z M 160.00,144.00c-44.183,0.00-80.00,35.816-80.00,80.00
	c0.00,44.183, 35.817,80.00, 80.00,80.00s 80.00-35.817, 80.00-80.00C 240.00,179.816, 204.183,144.00, 160.00,144.00z M 352.00,144.00c-44.182,0.00-80.00,35.816-80.00,80.00
	c0.00,44.183, 35.818,80.00, 80.00,80.00c 44.184,0.00, 80.00-35.817, 80.00-80.00C 432.00,179.816, 396.184,144.00, 352.00,144.00z" />
<glyph unicode="&#xe03b;" d="M 399.798,471.896C 354.535,471.896, 325.488,480.00, 278.874,480.00C 128.232,480.00, 57.978,394.208, 57.978,307.064
	c0.00-51.339, 24.32-68.229, 72.282-68.229c-3.379,7.432-9.457,15.54-9.457,52.017c0.00,102.005, 38.503,131.729, 87.818,133.755
	c0.00,0.00-40.459-396.687-157.889-444.271L 50.732-32.00 l 84.359,0.00 l 73.938,0.00 l 54.013,256.00l 98.922,0.00 L 384.00,288.00L 276.546,288.00 l 25.972,123.095
	c 29.723-6.078, 58.771-12.158, 83.766-12.158c 31.074,0.00, 59.447,9.457, 74.984,81.063C 442.355,473.92, 422.087,471.896, 399.798,471.896z" />
<glyph unicode="&#xe03c;" d="M 256.00,480.00C 114.615,480.00,0.00,365.385,0.00,224.00s 114.615-256.00, 256.00-256.00s 256.00,114.615, 256.00,256.00S 397.385,480.00, 256.00,480.00z M 256.00,32.00
		c-106.039,0.00-192.00,85.961-192.00,192.00c0.00,106.039, 85.961,192.00, 192.00,192.00c 106.039,0.00, 192.00-85.961, 192.00-192.00C 448.00,117.961, 362.039,32.00, 256.00,32.00zM 160.00,224.00A96.00,96.00 4860.00 1,0 352.00,224A96.00,96.00 4860.00 1,0 160.00,224z" />
<glyph unicode="&#xe03d;" d="M 256.00,480.00C 114.615,480.00,0.00,365.385,0.00,224.00s 114.615-256.00, 256.00-256.00s 256.00,114.615, 256.00,256.00S 397.385,480.00, 256.00,480.00z M 256.00,32.00
	c-106.039,0.00-192.00,85.961-192.00,192.00c0.00,106.039, 85.961,192.00, 192.00,192.00c 106.039,0.00, 192.00-85.961, 192.00-192.00C 448.00,117.961, 362.039,32.00, 256.00,32.00z" />
<glyph unicode="&#xe03e;" d="M 377.594,416.00C 434.061,416.00, 480.00,370.056, 480.00,313.584c0.00-17.689-2.709-33.877-8.28-49.492
	c-5.107-14.312-12.658-28.205-23.085-42.472c-20.959-28.684-51.409-55.677-83.647-84.255
	c-35.333-31.323-74.42-65.975-109.504-109.938c-35.252,42.688-73.336,76.052-107.772,106.221
	c-33.969,29.76-63.305,55.46-84.255,84.381c-10.427,14.395-17.981,28.573-23.096,43.348C 34.735,277.63, 32.00,294.707, 32.00,313.584
	C 32.00,370.056, 77.938,416.00, 134.404,416.00c 40.713,0.00, 76.563-36.856, 92.643-71.101l 28.977-61.711l 28.959,61.72
	C 301.047,379.148, 336.881,416.00, 377.594,416.00 M 377.594,448.00c-53.815,0.00-100.129-43.777-121.582-89.50C 234.543,404.222, 188.223,448.00, 134.404,448.00
	C 60.213,448.00,0.00,387.78,0.00,313.584c0.00-150.923, 152.25-190.497, 256.011-339.709C 354.088,122.163, 512.00,167.478, 512.00,313.584
	C 512.00,387.78, 451.785,448.00, 377.594,448.00L 377.594,448.00z" />
<glyph unicode="&#xe03f;" d="M 512.00,287.996L 316.434,287.996L 256.00,473.991L 195.567,287.996L0.00,287.996L 158.217,173.044L 97.783-12.951L 256.00,102.00L 414.216-12.95L 353.783,173.044 z" />
<glyph unicode="&#xe040;" d="M 512.00,287.996L 316.434,287.996 L 256.00,473.991l-60.435-185.995L0.00,287.996 l 158.217-114.952L 97.783-12.951L 256.00,102.00l 158.216-114.95l-60.434,185.994
	L 512.00,287.996z M 368.566,49.882L 256.00,131.666L 256.00,396.325 l 42.996-132.33l 139.14,0.00 L 325.57,182.211L 368.566,49.882z" />
<glyph unicode="&#xe041;" d="M 512.00,281.476L 316.434,281.476 L 256.00,467.471l-60.434-185.995L0.00,281.476 l 158.217-114.953L 97.783-19.471L 256.00,95.48l 158.216-114.951
	l-60.434,185.994L 512.00,281.476z M 368.565,43.362L 256.00,125.146l-112.566-81.784L 186.43,175.69L 73.864,257.476l 139.14,0.00 L 256.00,389.806
	l 42.997-132.33l 139.139,0.00 L 325.569,175.69L 368.565,43.362z" />
<glyph unicode="&#xe042;" d="M 96.00-32.00L 416.00-32.00L 448.00,320.00L 64.00,320.00 	zM 320.00,416.00L 320.00,480.00 L 192.00,480.00 l0.00-64.00 L 32.00,416.00 l0.00-96.00 l 32.00,32.00l 384.00,0.00 l 32.00-32.00L 480.00,416.00 L 320.00,416.00 z M 288.00,416.00l-64.00,0.00 L 224.00,448.00 l 64.00,0.00 L 288.00,416.00 z" />
<glyph unicode="&#xe043;" d="M 256.00,480.00C 114.615,480.00,0.00,365.385,0.00,224.00s 114.615-256.00, 256.00-256.00s 256.00,114.615, 256.00,256.00S 397.385,480.00, 256.00,480.00z M 256.00,32.00
		c-106.039,0.00-192.00,85.961-192.00,192.00c0.00,106.039, 85.961,192.00, 192.00,192.00c 106.039,0.00, 192.00-85.961, 192.00-192.00C 448.00,117.961, 362.039,32.00, 256.00,32.00zM 224.00,352.00A32.00,32.00 3060.00 1,0 288.00,352A32.00,32.00 3060.00 1,0 224.00,352zM 320.00,320.00A32.00,32.00 3060.00 1,0 384.00,320A32.00,32.00 3060.00 1,0 320.00,320zM 128.00,320.00A32.00,32.00 3060.00 1,0 192.00,320A32.00,32.00 3060.00 1,0 128.00,320zM 224.00,128.00L 224.00,96.00L 288.00,96.00L 288.00,128.00L 256.00,288.00 	z" />
<glyph unicode="&#xe044;" d="M 423.555,258.812c 0.033,2.533, 0.049,5.076, 0.049,7.626c0.00,30.532-93.227,55.284-208.225,55.284
		c-114.997,0.00-208.223-24.752-208.223-55.284C 7.156,101.615, 73.546-32.00, 215.379-32.00c 83.413,0.00, 140.723,46.225, 173.788,117.818
		c 3.338-0.27, 6.699-0.457, 10.119-0.457c 58.297,0.00, 105.559,39.356, 105.559,87.904C 504.844,214.857, 470.153,249.679, 423.555,258.812z
		 M 349.141,244.028c-36.689-8.652-84.195-13.417-133.762-13.417c-49.565,0.00-97.07,4.765-133.76,13.417
		c-35.822,8.448-50.376,18.136-54.252,22.411c 3.876,4.275, 18.431,13.961, 54.252,22.409c 36.688,8.653, 84.193,13.419, 133.76,13.419
		c 49.565,0.00, 97.071-4.767, 133.762-13.419c 35.822-8.448, 50.377-18.134, 54.254-22.409C 399.518,262.164, 384.963,252.477, 349.141,244.028
		z M 398.268,107.787c 12.537,33.865, 20.355,72.30, 23.60,113.514c 30.50-6.246, 48.42-28.615, 48.42-51.395
		C 470.285,140.523, 448.723,111.186, 398.268,107.787zM 255.689,353.922C 283.881,396.539, 206.377,442.352, 259.908,480.00c-44.528-2.943-52.161-30.188-40.935-51.461
		C 229.63,408.348, 255.649,394.268, 255.689,353.922zM 233.163,325.499c 12.646,35.708-59.269,64.515-19.554,105.806c-37.209-10.992-36.253-41.592-20.227-58.701
		C 204.951,360.25, 225.905,354.518, 233.163,325.499z" />
<glyph unicode="&#xe045;" d="M 416.00,480.00L 96.00,480.00 C 78.40,480.00, 64.00,465.60, 64.00,448.00l0.00-448.00 c0.00-17.60, 14.40-32.00, 32.00-32.00l 320.00,0.00 c 17.60,0.00, 32.00,14.40, 32.00,32.00L 448.00,448.00 C 448.00,465.60, 433.60,480.00, 416.00,480.00z M 256.00-16.00
	c-8.837,0.00-16.00,7.163-16.00,16.00s 7.163,16.00, 16.00,16.00s 16.00-7.163, 16.00-16.00S 264.837-16.00, 256.00-16.00z M 384.00,32.00L 128.00,32.00 L 128.00,416.00 l 256.00,0.00 L 384.00,32.00 z" />
<glyph unicode="&#xe046;" d="M 256.00,352.00L 256.00,192.00L 384.00,192.00L 384.00,224.00L 288.00,224.00L 288.00,352.00 	zM 288.00,448.00C 164.288,448.00, 64.00,347.712, 64.00,224.00L0.00,224.00 l 80.00-96.00l 80.00,96.00L 96.00,224.00 c0.00,106.039, 85.961,192.00, 192.00,192.00c 106.039,0.00, 192.00-85.961, 192.00-192.00
		c0.00-106.039-85.961-192.00-192.00-192.00c-10.904,0.00-21.592,0.923-32.00,2.67l0.00-32.385 c 10.453-1.495, 21.134-2.285, 32.00-2.285
		c 123.712,0.00, 224.00,100.288, 224.00,224.00S 411.712,448.00, 288.00,448.00z" />
<glyph unicode="&#xe047;" d="M 380.931-32.00C 437.794,71.016, 447.375,228.153, 224.00,222.912L 224.00,96.00 L 32.00,288.00L 224.00,480.00l0.00-124.186 
	C 491.481,362.785, 521.285,119.707, 380.931-32.00z" />
<glyph unicode="&#xe048;" d="M 288.00,355.814L 288.00,480.00 l 192.00-192.00L 288.00,96.00L 288.00,222.912 C 64.625,228.153, 74.206,71.016, 131.07-32.00
	C-9.286,119.707, 20.52,362.785, 288.00,355.814z" />
<glyph unicode="&#xe049;" d="M 492.25,352.00L 448.00,352.00 L 448.00,392.00 c0.00,13.255-10.745,24.00-24.00,24.00L 208.00,416.00 l-16.00,32.00L 88.00,448.00 c-13.255,0.00-24.00-10.745-24.00-24.00l0.00-72.00 L 19.75,352.00 
	c-13.20,0.00-21.882-10.59-19.293-23.534l 58.836-272.932C 61.882,42.59, 74.80,32.00, 88.00,32.00l 336.00,0.00 c 13.20,0.00, 26.118,10.59, 28.707,23.534
	l 58.836,272.932C 514.132,341.41, 505.45,352.00, 492.25,352.00z M 96.00,416.00l 76.223,0.00 l 16.00-32.00L 416.00,384.00 l0.00-32.00 L 96.00,352.00 L 96.00,416.00 z M 421.797,64.00L 90.203,64.00 L 35.017,320.00l 441.966,0.00 
	L 421.797,64.00z" />
<glyph unicode="&#xe04a;" d="M 492.25,352.00L 19.75,352.00 c-13.20,0.00-21.882-10.59-19.293-23.534l 58.836-272.932C 61.882,42.59, 74.80,32.00, 88.00,32.00l 336.00,0.00 
		c 13.20,0.00, 26.118,10.59, 28.707,23.534l 58.836,272.932C 514.132,341.41, 505.45,352.00, 492.25,352.00zM 448.00,392.00c0.00,13.255-10.745,24.00-24.00,24.00L 208.00,416.00 l-16.00,32.00L 88.00,448.00 c-13.255,0.00-24.00-10.745-24.00-24.00l0.00-56.00 l 384.00,0.00 L 448.00,392.00 z" />
<glyph unicode="&#xe04b;" d="M 440.698,8.064L 313.486,194.95c-3.336,4.914-10.234,6.433-15.325,3.379l-16.069-9.668
		c-5.087-3.05-6.992-9.845-4.229-15.111l 105.281-200.064c 2.763-5.252, 9.177-7.056, 14.271-3.99l 40.101,24.093
		C 442.608-3.356, 444.033,3.149, 440.698,8.064zM 296.322,213.939c 48.104,30.646, 50.188,110.532, 4.747,181.875c-38.64,60.653-97.389,92.75-143.688,82.201
		c-10.647-2.086-24.247-7.761-37.93-16.475c-13.683-8.721-24.604-18.643-30.979-27.432C 59.346,396.604, 63.617,329.806, 102.25,269.17
		c 45.45-71.346, 118.727-103.23, 166.844-72.58l 27.22,17.346L 296.322,213.939z M 278.977,241.169
		c-31.746-20.215-87.728,8.487-122.253,62.704c-34.536,54.196-36.891,117.063-5.14,137.293c 31.722,20.217, 87.719-8.50, 122.243-62.708
		C 308.357,324.269, 310.704,261.392, 278.977,241.169z" />
<glyph unicode="&#xe04c;" d="M 311.413,128.632c-11.055,1.759-11.307,32.157-11.307,32.157s 32.484,32.158, 39.564,75.401
	c 19.045,0.00, 30.809,45.973, 11.761,62.148C 352.226,315.365, 375.911,432.00, 256.00,432.00c-119.911,0.00-96.225-116.635-95.432-133.662
	c-19.047-16.175-7.285-62.148, 11.761-62.148c 7.079-43.243, 39.564-75.401, 39.564-75.401s-0.252-30.398-11.307-32.157
	C 164.976,122.966, 32.00,64.315, 32.00,0.00l 224.00,0.00 l 224.00,0.00 C 480.00,64.315, 347.024,122.966, 311.413,128.632z" />
<glyph unicode="&#xe04d;" d="M 352.00,448.00L 192.00,288.00L 96.00,288.00 L0.00,160.00c0.00,0.00, 101.708,28.326, 161.033,15.042L0.00-32.00l 210.951,164.072C 240.37,64.745, 192.00-32.00, 192.00-32.00l 128.00,96.00
	l0.00,96.00 l 160.00,160.00L 512.00,480.00L 352.00,448.00z" />
<glyph unicode="&#xe04e;" d="M 507.882,411.883L 448.00,352.00l-64.00,64.00l 59.882,59.883C 435.057,478.557, 425.698,480.00, 416.00,480.00c-53.021,0.00-96.00-42.98-96.00-96.00
	c0.00-9.697, 1.442-19.057, 4.116-27.882L 123.882,155.883C 115.057,158.557, 105.698,160.00, 96.00,160.00c-53.021,0.00-96.00-42.98-96.00-96.00
	c0.00-9.697, 1.442-19.058, 4.117-27.882L 64.00,96.00l 64.00-64.00l-59.883-59.882C 76.943-30.556, 86.302-32.00, 96.00-32.00c 53.02,0.00, 96.00,42.981, 96.00,96.00
	c0.00,9.698-1.444,19.059-4.118,27.883l 200.234,200.235C 396.943,289.444, 406.302,288.00, 416.00,288.00c 53.02,0.00, 96.00,42.981, 96.00,96.00
	C 512.00,393.698, 510.556,403.058, 507.882,411.883z" />
<glyph unicode="&#xe04f;" d="M0.00,64.00L 512.00,64.00L 512.00,0.00L0.00,0.00zM 64.00,192.00L 128.00,192.00L 128.00,96.00L 64.00,96.00zM 160.00,320.00L 224.00,320.00L 224.00,96.00L 160.00,96.00zM 256.00,224.00L 320.00,224.00L 320.00,96.00L 256.00,96.00zM 352.00,416.00L 416.00,416.00L 416.00,96.00L 352.00,96.00z" />
<glyph unicode="&#xe050;" d="M 320.00,320.00l 96.00,64.00L 320.00,480.00l-60.00-140.00L 224.00,448.00l-96.00-64.00l 80.00-64.00L 32.00,320.00 l0.00-128.00 l 32.00,0.00 l0.00-224.00 l 384.00,0.00 L 448.00,192.00 l 32.00,0.00 L 480.00,320.00 L 320.00,320.00 z M 328.096,437.963l 50.233-50.233
	l-100.467-66.978L 328.096,437.963z M 211.168,410.601l 28.364-85.092l-70.91,56.728L 211.168,410.601z M 224.00,0.00L 96.00,0.00 L 96.00,208.00 l 128.00,0.00 L 224.00,0.00 z M 224.00,224.00
	L 64.00,224.00 l0.00,64.00 l 160.00,0.00 L 224.00,224.00 z M 416.00,0.00L 288.00,0.00 L 288.00,208.00 l 128.00,0.00 L 416.00,0.00 z M 448.00,224.00L 288.00,224.00 l0.00,64.00 l 160.00,0.00 L 448.00,224.00 z" />
<glyph unicode="&#xe051;" d="M 478.145,77.759L 320.00,341.271L 320.00,448.00 l 16.00,0.00 c 8.80,0.00, 16.00,7.20, 16.00,16.00s-7.20,16.00-16.00,16.00L 176.00,480.00 c-8.80,0.00-16.00-7.20-16.00-16.00s 7.20-16.00, 16.00-16.00l 16.00,0.00 l0.00-106.729 
	L 33.856,77.759C-2.365,17.392, 25.60-32.00, 96.00-32.00l 320.00,0.00 C 486.40-32.00, 514.365,17.392, 478.145,77.759z M 120.519,160.00L 224.00,332.469L 224.00,448.00 l 64.00,0.00 
	l0.00-115.531 L 391.482,160.00L 120.519,160.00 z" />
<glyph unicode="&#xe052;" d="M 160.504-32.00C 51.878,29.221, 23.279,87.168, 39.63,166.311c 12.071,58.44, 56.647,105.986, 60.437,164.314
	c 16.884-30.726, 18.888-52.882, 20.775-84.99C 174.542,311.428, 230.231,399.478, 218.19,480.00c0.00,0.00, 133.808-64.00, 142.986-188.138
	c 12.041,25.587, 12.041,66.225,0.00,92.563c 36.122-26.339, 253.609-260.16-22.577-416.425c 51.926,101.105, 13.396,237.527-76.761,300.533
	c 6.021-27.092-1.505-97.832-41.391-142.232c 9.031,45.904-13.546,75.254-13.546,75.254s-7.402-41.555-36.122-83.533
	C 144.553,79.689, 126.381,39.004, 160.504-32.00z" />
<glyph unicode="&#xe053;" d="M 408.785,305.925C 312.002,377.854, 278.652,435.434, 256.002,479.999l0.00,0.00C 256.00,479.999, 256.00,480.00, 256.00,480.00l0.00-0.001 
	c-22.648-44.565-56.00-102.146-152.783-174.074c-165.018-122.643-9.688-293.834, 126.879-199.612
	c-8.898-58.465-39.265-101.086-70.104-119.441L 159.992-32.00 l 96.008,0.00 l 96.008,0.00 l0.00,18.87 c-30.841,18.354-61.205,60.977-70.106,119.442
	C 418.47,12.089, 573.802,183.282, 408.785,305.925z" />
<glyph unicode="&#xe054;" d="M 393.416,283.614c-29.516,0.00-56.043-12.298-74.926-32.347c-7.998-8.492-21.881-18.556-36.90-27.405
	c 7.055,26.934, 29.338,60.85, 44.814,75.728c 19.82,19.085, 31.992,45.915, 31.992,75.75C 358.399,432.787, 312.658,479.388, 256.002,480.00
	c-56.66-0.611-102.398-47.213-102.398-104.659c0.00-29.836, 12.172-56.665, 31.993-75.75c 15.477-14.878, 37.76-48.794, 44.814-75.728
	c-15.021,8.85-28.903,18.913-36.90,27.405c-18.884,20.049-45.41,32.347-74.925,32.347c-57.193,0.00-103.54-46.832-103.54-104.664
	c0.00-57.819, 46.346-104.669, 103.54-104.669c 29.521,0.00, 56.041,12.678, 74.925,32.726c 8.402,8.936, 23.222,20.069, 39.146,29.316
	c-1.501-73.846-36.766-128.084-72.659-149.453L 159.998-32.00 l 96.005,0.00 l 96.002,0.00 l0.00,18.87 c-35.896,21.368-71.16,75.608-72.66,149.453
	c 15.926-9.247, 30.744-20.384, 39.146-29.316c 18.883-20.047, 45.404-32.726, 74.926-32.726c 57.193,0.00, 103.539,46.85, 103.539,104.669
	C 496.955,236.782, 450.61,283.614, 393.416,283.614z" />
<glyph unicode="&#xe055;" d="M 256.00,480.00L 96.00,224.00L 256.00-32.00L 416.00,224.00 z" />
<glyph unicode="&#xe056;" d="M 240.00,128.00c 44.183,0.00, 80.00,35.817, 80.00,80.00L 320.00,400.00 c0.00,44.183-35.817,80.00-80.00,80.00s-80.00-35.817-80.00-80.00l0.00-192.00 C 160.00,163.817, 195.818,128.00, 240.00,128.00zM 352.00,256.00l0.00-48.00 c0.00-61.855-50.145-112.00-112.00-112.00c-61.856,0.00-112.00,50.145-112.00,112.00l0.00,48.00 L 96.00,256.00 l0.00-48.00 c0.00-74.119, 56.002-135.15, 128.00-143.11L 224.00,0.00 
		l-64.00,0.00 l0.00-32.00 l 64.00,0.00 l 32.00,0.00 l 64.00,0.00 l0.00,32.00 l-64.00,0.00 l0.00,64.89 c 71.997,7.96, 128.00,68.991, 128.00,143.11l0.00,48.00 L 352.00,256.00 z" />
<glyph unicode="&#xe057;" d="M 490.594,399.946C 418.778,410.271, 339.428,416.00, 256.001,416.00c-83.43,0.00-162.778-5.729-234.597-16.054
	C 7.639,346.083,0.00,286.571,0.00,224.00c0.00-62.57, 7.639-122.083, 21.404-175.945C 93.223,37.729, 172.572,32.00, 256.001,32.00
	c 83.427,0.00, 162.776,5.729, 234.593,16.055C 504.36,101.917, 512.00,161.43, 512.00,224.00C 512.00,286.571, 504.36,346.083, 490.594,399.946z
	 M 192.001,128.00L 192.001,320.00 l 160.00-96.00L 192.001,128.00z" />
<glyph unicode="&#xe058;" d="M 288.00,352.00L 64.00,352.00 c-17.601,0.00-32.00-14.399-32.00-32.00l0.00-192.00 c0.00-17.60, 14.399-32.00, 32.00-32.00l 224.00,0.00 c 17.601,0.00, 32.00,14.40, 32.00,32.00L 320.00,320.00 
		C 320.00,337.601, 305.601,352.00, 288.00,352.00zM 352.00,242.286L 352.00,205.715L 480.00,96.00L 480.00,352.00 	z" />
</font>
</defs>
</svg>
